<svg width="42" height="42" viewBox="0 0 42 42" fill="none" xmlns="http://www.w3.org/2000/svg">
<path d="M36.75 21C36.75 29.6985 29.6985 36.75 21 36.75M36.75 21C36.75 12.3015 29.6985 5.25 21 5.25M36.75 21H5.25M21 36.75C12.3015 36.75 5.25 29.6985 5.25 21M21 36.75C23.8995 36.75 26.25 29.6985 26.25 21C26.25 12.3015 23.8995 5.25 21 5.25M21 36.75C18.1005 36.75 15.75 29.6985 15.75 21C15.75 12.3015 18.1005 5.25 21 5.25M5.25 21C5.25 12.3015 12.3015 5.25 21 5.25" stroke="#111827" stroke-width="2" stroke-linecap="round" stroke-linejoin="round"/>
</svg>
