<?xml version="1.0" encoding="UTF-8" standalone="no"?>
<!DOCTYPE svg PUBLIC "-//W3C//DTD SVG 1.1//EN" "http://www.w3.org/Graphics/SVG/1.1/DTD/svg11.dtd">
<svg width="100%" height="100%" viewBox="0 0 1441 536" version="1.1" xmlns="http://www.w3.org/2000/svg" xmlns:xlink="http://www.w3.org/1999/xlink" xml:space="preserve" xmlns:serif="http://www.serif.com/" style="fill-rule:evenodd;clip-rule:evenodd;stroke-linejoin:round;stroke-miterlimit:2;">
    <g transform="matrix(1,0,0,1,0.5,-227.18)">
        <g>
            <path d="M1440,227.18L1440,717.868L1439.6,717.823C1421.74,715.786 1403.14,717.063 1382.77,721.731C1364.57,725.898 1346.6,732.338 1329.22,738.566C1304.98,747.249 1279.93,756.228 1253.44,759.432C1222.22,763.207 1189.94,760.11 1158.73,757.115C1152.83,756.548 1146.72,755.962 1140.77,755.438C1105.18,752.306 1097.53,747.71 1077.08,735.425C1073.19,733.085 1068.77,730.433 1063.62,727.467C1052.9,721.29 1041.31,716.899 1028.17,714.044C1016.51,711.509 1003.92,710.259 989.697,710.222C989.484,710.221 989.269,710.221 989.055,710.221C972.687,710.221 955.835,711.846 939.02,714.047C933.393,714.967 927.793,715.922 922.244,716.868C894.94,721.525 866.707,726.34 838.632,726.365L838.542,726.365C829.581,726.366 820.924,725.174 812.503,723.144C810.901,722.891 809.297,722.618 807.686,722.325C790.905,719.271 775.567,714.426 759.328,709.297C742.943,704.121 725.999,698.769 706.078,694.782C689.436,691.452 673.754,691.405 656.725,694.636C641.678,697.491 627.911,702.443 613.337,707.685C598.087,713.17 582.457,718.792 565.051,721.897C560.965,722.835 556.713,723.568 552.261,724.055C532.25,726.244 511.255,725.764 488.077,722.59C467.384,719.755 446.793,715.065 426.881,710.531C420.904,709.169 414.867,707.794 408.778,706.457C395.945,704.672 382.952,703.464 369.828,703.385C353.801,703.29 338.248,704.551 323.605,707.139C308.08,709.884 293.598,714.12 280.561,719.729C269.122,724.651 259.719,731.883 250.626,738.878C239.625,747.339 228.249,756.089 213.369,760.534C206.014,762.73 197.744,763.832 188.484,763.832C173.398,763.832 155.681,760.911 134.98,755.043C106.071,746.848 75.936,734.247 49.35,723.129C31.321,715.59 14.293,708.47 0.851,704.132L0,703.857L0,227.18L1440,227.18Z" style="fill:none;fill-rule:nonzero;stroke:black;stroke-width:1px;"/>
        </g>
    </g>
</svg>
