<svg width="54" height="52" viewBox="0 0 54 52" fill="none" xmlns="http://www.w3.org/2000/svg">
<path d="M24.0352 22.2532L24.0374 22.2543C24.2287 22.456 24.4862 22.5604 24.7349 22.5582C24.9814 22.5615 25.2427 22.4549 25.4313 22.2543L25.4335 22.2532L34.4625 12.6868C34.4685 12.6814 34.4713 12.6737 34.4762 12.6688C35.1272 11.968 35.64 11.1196 35.9625 10.1722C36.2085 9.44519 36.3425 8.66184 36.3425 7.84898C36.3419 4.07053 33.4649 1.00219 29.9209 1C27.7759 1 25.8872 2.13594 24.7212 3.86117C23.5541 2.13594 21.666 1 19.5209 1C15.9786 1.00219 13.1 4.07053 13.0989 7.84898C13.0989 8.64435 13.2273 9.41022 13.4624 10.122C13.7314 10.9337 14.1392 11.6733 14.6541 12.3118L14.6552 12.3129C14.8624 12.5682 15.0898 12.8066 15.3309 13.0285L15.3287 13.0307L24.0352 22.2532Z" stroke="#C4C4C4" stroke-width="2" stroke-miterlimit="2" stroke-linejoin="round"/>
<path d="M52.7109 32.1498C52.5119 31.8765 52.1954 31.7153 51.8571 31.7153C49.2495 31.7153 47.4707 30.3071 45.4104 28.6759C44.9611 28.32 44.5084 27.9625 44.0421 27.6154C42.1305 26.1925 39.7066 24.7384 36.231 24.7384C34.7381 24.7384 33.5896 24.752 32.6499 24.7832H25.3325C23.6822 24.7832 22.3385 26.1837 22.3385 27.9073C22.3385 29.6293 23.6822 31.0298 25.3325 31.0298H32.1006C32.9675 31.2233 33.5896 32.0536 33.5896 33.0382C33.5896 33.745 33.2523 34.3977 32.7019 34.7721L30.2026 35.4789C29.3608 35.6949 28.5047 35.9359 27.6098 36.2104L27.436 36.2596C22.7873 37.5715 21.1916 38.0116 20.7138 38.1362C20.5296 38.1428 20.3694 38.1351 20.2344 38.116L9.61356 30.775L7.67514 29.2799C7.64016 29.2531 7.60353 29.228 7.56417 29.2061C7.46031 29.1373 7.35207 29.0749 7.23836 29.0121C7.02244 28.8956 6.81908 28.8071 6.59988 28.7344C6.43643 28.6841 6.25986 28.6425 6.06471 28.6108C5.5514 28.5305 5.17367 28.5485 4.75493 28.6311C2.60988 28.8639 1 30.7225 1 32.9829C1 34.1254 1.4242 35.2078 2.19661 36.0322C2.21356 36.0513 2.2305 36.0704 2.24963 36.0885C2.53498 36.382 2.84658 36.628 3.17894 36.8199L20.8248 50.4615C20.921 50.5353 21.0271 50.5911 21.1386 50.6283L21.3146 50.6999C21.8585 50.9016 22.3757 51 22.8922 51C23.2 51 23.5176 50.9656 23.8352 50.8994C23.8576 50.895 23.8789 50.8901 23.9008 50.8836L23.9812 50.8611C30.307 49.1441 41.7293 46.0512 47.1482 44.626C47.187 44.6151 47.2253 44.6025 47.2619 44.5883L47.6107 44.4516C49.4922 43.9487 50.9933 43.671 51.8423 43.671C52.4267 43.671 52.8995 43.1982 52.8995 42.6144V41.9245C52.9104 41.8627 52.9154 41.7988 52.9143 41.7343L52.8995 32.9496C52.9471 32.6697 52.8804 32.3816 52.7109 32.1498Z" stroke="#C4C4C4" stroke-width="2" stroke-miterlimit="2" stroke-linejoin="round"/>
</svg>
