<svg width="20" height="20" viewBox="0 0 20 20" fill="none" xmlns="http://www.w3.org/2000/svg">
<path d="M10 0C7.28416 0 6.94362 0.0115116 5.87701 0.0601777C4.81263 0.108764 4.08569 0.277786 3.44958 0.525007C2.79199 0.780564 2.23432 1.1225 1.67839 1.67843C1.12246 2.23436 0.780524 2.79203 0.524967 3.44962C0.277746 4.08569 0.108725 4.81263 0.060138 5.87701C0.0114719 6.94362 0 7.28416 0 10C0 12.7158 0.0114719 13.0564 0.060138 14.123C0.108725 15.1874 0.277746 15.9143 0.524967 16.5504C0.780524 17.208 1.12246 17.7656 1.67839 18.3216C2.23432 18.8775 2.79199 19.2195 3.44958 19.475C4.08569 19.7222 4.81263 19.8913 5.87701 19.9398C6.94362 19.9885 7.28416 20 10 20C12.7158 20 13.0564 19.9885 14.123 19.9398C15.1874 19.8913 15.9143 19.7222 16.5504 19.475C17.208 19.2195 17.7656 18.8775 18.3216 18.3216C18.8775 17.7656 19.2195 17.208 19.475 16.5504C19.7222 15.9143 19.8913 15.1874 19.9398 14.123C19.9885 13.0564 20 12.7158 20 10C20 7.28416 19.9885 6.94362 19.9398 5.87701C19.8913 4.81263 19.7222 4.08569 19.475 3.44962C19.2195 2.79203 18.8775 2.23436 18.3216 1.67843C17.7656 1.1225 17.208 0.780564 16.5504 0.525007C15.9143 0.277786 15.1874 0.108764 14.123 0.0601777C13.0564 0.0115116 12.7158 0 10 0ZM10 1.80184C12.6701 1.80184 12.9864 1.812 14.0409 1.86011C15.0158 1.90461 15.5453 2.06752 15.8977 2.20443C16.3645 2.38583 16.6976 2.60257 17.0475 2.95248C17.3975 3.30239 17.6142 3.63555 17.7956 4.10229C17.9325 4.45466 18.0954 4.98415 18.1399 5.95914C18.188 7.0136 18.1982 7.32989 18.1982 10C18.1982 12.6701 18.188 12.9864 18.1399 14.0409C18.0954 15.0158 17.9325 15.5453 17.7956 15.8977C17.6142 16.3645 17.3975 16.6976 17.0475 17.0475C16.6976 17.3975 16.3645 17.6142 15.8977 17.7956C15.5453 17.9325 15.0158 18.0954 14.0409 18.1399C12.9866 18.188 12.6703 18.1982 10 18.1982C7.32969 18.1982 7.01348 18.188 5.95914 18.1399C4.98415 18.0954 4.45466 17.9325 4.10229 17.7956C3.63551 17.6142 3.30239 17.3975 2.95244 17.0475C2.60253 16.6976 2.38579 16.3645 2.20443 15.8977C2.06748 15.5453 1.90457 15.0158 1.86007 14.0409C1.81196 12.9864 1.8018 12.6701 1.8018 10C1.8018 7.32989 1.81196 7.0136 1.86007 5.95914C1.90457 4.98415 2.06748 4.45466 2.20443 4.10229C2.38579 3.63555 2.60253 3.30239 2.95244 2.95248C3.30239 2.60257 3.63551 2.38583 4.10229 2.20443C4.45466 2.06752 4.98415 1.90461 5.95914 1.86011C7.0136 1.812 7.32989 1.80184 10 1.80184Z" fill="#01202C"/>
<path d="M10.0001 13.3335C8.15916 13.3335 6.66679 11.8411 6.66679 10.0001C6.66679 8.15916 8.15916 6.66679 10.0001 6.66679C11.8411 6.66679 13.3335 8.15916 13.3335 10.0001C13.3335 11.8411 11.8411 13.3335 10.0001 13.3335ZM10.0001 4.86499C7.16405 4.86499 4.86499 7.16405 4.86499 10.0001C4.86499 12.8362 7.16405 15.1353 10.0001 15.1353C12.8362 15.1353 15.1353 12.8362 15.1353 10.0001C15.1353 7.16405 12.8362 4.86499 10.0001 4.86499Z" fill="#01202C"/>
<path d="M16.5379 4.6619C16.5379 5.32464 16.0007 5.86188 15.3379 5.86188C14.6752 5.86188 14.1379 5.32464 14.1379 4.6619C14.1379 3.99915 14.6752 3.46191 15.3379 3.46191C16.0007 3.46191 16.5379 3.99915 16.5379 4.6619Z" fill="#01202C"/>
</svg>
