<svg width="51" height="52" viewBox="0 0 51 52" fill="none" xmlns="http://www.w3.org/2000/svg">
<path d="M48.882 33.5456C48.6977 33.2926 48.4047 33.1432 48.0913 33.1432C45.6769 33.1432 44.0298 31.8393 42.122 30.3289C41.706 29.9994 41.2868 29.6684 40.8551 29.3469C39.085 28.0294 36.8406 26.683 33.6224 26.683C32.24 26.683 31.1765 26.6956 30.3064 26.7244H23.5308C22.0027 26.7244 20.7585 28.0213 20.7585 29.6172C20.7585 31.2117 22.0027 32.5085 23.5308 32.5085H29.7977C30.6005 32.6877 31.1765 33.4566 31.1765 34.3682C31.1765 35.0227 30.8642 35.627 30.3545 35.9738L28.0403 36.6282C27.2608 36.8282 26.4681 37.0514 25.6395 37.3055L25.4785 37.3511C21.174 38.5659 19.6965 38.9733 19.2541 39.0887C19.0835 39.0948 18.9352 39.0877 18.8102 39.07L8.97577 32.2726L7.18088 30.8882C7.14849 30.8634 7.11457 30.8401 7.07813 30.8199C6.98196 30.7561 6.88173 30.6984 6.77645 30.6402C6.57651 30.5324 6.38821 30.4504 6.18524 30.3831C6.03389 30.3365 5.87039 30.298 5.68969 30.2687C5.21439 30.1943 4.86463 30.211 4.4769 30.2874C2.49067 30.503 1 32.224 1 34.317C1 35.3749 1.39279 36.3772 2.10801 37.1405C2.1237 37.1582 2.13939 37.1759 2.1571 37.1926C2.42133 37.4644 2.70985 37.6922 3.0176 37.8699L19.3569 50.5014C19.446 50.5698 19.5442 50.6214 19.6474 50.6558L19.8104 50.7221C20.3141 50.9089 20.7929 51 21.2712 51C21.5562 51 21.8503 50.9681 22.1444 50.9069C22.1651 50.9028 22.1849 50.8983 22.2051 50.8922L22.2795 50.8715C28.137 49.2816 38.7135 46.4176 43.7312 45.098C43.7671 45.0879 43.8025 45.0763 43.8364 45.0631L44.1594 44.9366C45.9016 44.4709 47.2916 44.2138 48.0777 44.2138C48.6188 44.2138 49.0566 43.7759 49.0566 43.2353V42.5965C49.0667 42.5393 49.0713 42.4801 49.0703 42.4204L49.0566 34.2862C49.1006 34.027 49.0389 33.7603 48.882 33.5456Z" stroke="#C4C4C4" stroke-width="2" stroke-miterlimit="2" stroke-linejoin="round"/>
<path d="M31.9773 1.83597L31.9765 1.79393C31.9656 1.37027 31.6302 1.02564 31.2065 1.00336L31.1641 1.00167C31.1498 1.00083 31.1355 1 31.1212 1C25.4392 1 20.4562 4.46828 18.3799 9.55807C18.0067 7.32167 16.9623 5.18742 15.2613 3.48648C15.2029 3.42848 15.1432 3.37593 15.0827 3.32256C15.0562 3.30028 15.0302 3.278 15.0049 3.25363C14.7036 2.97203 14.2244 2.97119 13.9084 3.23724C13.8903 3.25195 13.8731 3.26833 13.8567 3.28472C9.67012 7.47213 9.33935 14.0897 13.2847 18.515L8.09863 23.2173L9.68147 24.935L14.4796 19.6994C16.6084 21.5966 19.1348 22.3876 21.7931 22.3876C24.6617 22.3876 27.5226 21.2927 29.6939 19.1215C29.6993 19.1164 29.7275 19.0862 29.733 19.0811C30.0204 18.7764 30.0078 18.2775 29.7334 17.9615C29.7208 17.9476 29.7073 17.9333 29.6939 17.9194C27.866 16.0907 25.5363 15.0169 23.1179 14.7264C28.3308 12.7595 31.9782 7.75374 31.9773 1.83597Z" stroke="#C4C4C4" stroke-width="2" stroke-miterlimit="2" stroke-linejoin="round"/>
</svg>
