<svg width="42" height="42" viewBox="0 0 42 42" fill="none" xmlns="http://www.w3.org/2000/svg">
<path d="M33.25 36.75V8.75C33.25 6.817 31.683 5.25 29.75 5.25H12.25C10.317 5.25 8.75 6.817 8.75 8.75V36.75M33.25 36.75L36.75 36.75M33.25 36.75H24.5M8.75 36.75L5.25 36.75M8.75 36.75H17.5M15.75 12.25H17.5M15.75 19.25H17.5M24.5 12.25H26.25M24.5 19.25H26.25M17.5 36.75V28C17.5 27.0335 18.2835 26.25 19.25 26.25H22.75C23.7165 26.25 24.5 27.0335 24.5 28V36.75M17.5 36.75H24.5" stroke="#111827" stroke-width="2" stroke-linecap="round" stroke-linejoin="round"/>
</svg>
