<svg width="214" height="234" viewBox="0 0 214 234" fill="none" xmlns="http://www.w3.org/2000/svg">
<path d="M103.324 92.0153C95.8531 83.5349 89.2756 74.284 83.8114 64.3876C77.925 53.7252 73.2863 42.3721 70.0165 30.6407C68.4159 24.8983 67.1721 19.0652 66.2477 13.1786C71.1086 19.7334 75.1998 26.8301 78.8324 34.1321C82.9253 42.359 86.5139 50.8294 90.1189 59.2792C93.7781 67.8572 97.3602 76.4668 100.895 85.096C101.667 86.9841 102.425 88.8768 103.186 90.7688C103.232 91.1846 103.278 91.6 103.324 92.0153ZM71.368 18.0073C71.4313 18.0821 71.4981 18.154 71.56 18.2294C73.3076 20.3301 75.0008 22.474 76.6568 24.6464C79.945 28.9636 82.9066 33.5205 85.5953 38.2328C91.0202 47.7389 95.2289 57.8499 98.3814 68.3246C99.2538 71.2221 100.018 74.1478 100.676 77.1012C101.207 79.4811 101.612 81.8917 102.124 84.2765C99.0352 76.7014 95.8973 69.1475 92.6979 61.6195C89.0951 53.1409 85.5146 44.6377 81.5154 36.3366C78.485 30.044 75.1797 23.862 71.368 18.0073ZM78.6523 25.6903C76.8837 23.1453 75.0348 20.658 73.0627 18.2656C72.7979 17.9438 72.5292 17.6236 72.2621 17.3019C74.8455 19.4186 77.4031 21.5652 79.8188 23.8857C84.4645 28.35 88.5868 33.327 91.7093 38.9806C97.4312 49.3367 99.6588 61.2144 101.14 72.8261C101.467 75.4004 101.767 77.9792 102.058 80.5582C101.89 79.6826 101.714 78.8084 101.536 77.9399C100.987 75.2733 100.337 72.625 99.6397 69.9931C98.2409 64.7155 96.4747 59.5297 94.4202 54.4709C90.2857 44.2931 84.9189 34.7034 78.6523 25.6903ZM156.762 151.717C155.402 150.84 154.08 149.902 152.798 148.915C150.292 146.985 147.938 144.86 145.74 142.584C141.275 137.962 137.473 132.721 134.244 127.172C127.687 115.905 123.79 103.333 120.87 90.6932C120.316 88.2976 119.791 85.896 119.282 83.4911C120.222 86.3853 121.228 89.2592 122.298 92.1082C124.437 97.8073 126.855 103.398 129.527 108.867C134.893 119.855 141.206 130.465 148.477 140.303C151.674 144.629 155.066 148.812 158.619 152.851C157.996 152.48 157.372 152.111 156.762 151.717ZM117.981 77.0778C117.924 76.7733 117.863 76.4695 117.804 76.1655C118.193 77.2885 118.622 78.4025 119.093 79.5091C120.918 83.7921 123.052 87.9462 125.285 92.0281C129.871 100.412 134.995 108.483 140.027 116.602C144.864 124.404 149.657 132.264 153.768 140.479C155.44 143.821 156.997 147.226 158.411 150.687C151.728 143.017 145.587 134.842 140.156 126.251C133.668 115.987 128.218 105.092 123.745 93.8063C122.481 90.6188 121.303 87.3977 120.215 84.146C119.431 81.8015 118.716 79.436 117.981 77.0778ZM155.166 118.184C158.221 123.486 160.333 129.362 161.399 135.386C162.193 139.875 162.391 144.418 162.033 148.93C162.434 140.077 159.51 131.211 155.231 123.532C152.099 117.913 148.234 112.784 144.261 107.742C140.375 102.809 136.443 97.9123 132.617 92.9315C135.384 95.6793 138.229 98.3518 141.017 101.078C146.319 106.26 151.443 111.726 155.166 118.184ZM148.217 122.372C141.195 112.558 134.628 102.495 128.621 92.0262C126.889 89.0083 125.219 85.9621 123.577 82.9004C123.812 83.2052 124.048 83.5085 124.288 83.8101C125.987 86.1788 127.71 88.5299 129.466 90.857C133.368 96.0305 137.467 101.039 141.618 106.012C149.154 115.038 156.371 124.825 159.742 136.242C161.134 140.955 161.773 145.827 161.416 150.702C160.432 140.127 154.249 130.801 148.217 122.372ZM161.162 153.072C159.902 149.767 158.506 146.513 156.994 143.32C153.141 135.176 148.568 127.409 143.826 119.759C138.771 111.604 133.531 103.562 128.724 95.2566C126.577 91.5459 124.521 87.78 122.601 83.9466C123.808 86.1449 125.039 88.3288 126.293 90.4935C129.3 95.6855 132.49 100.78 135.79 105.792C139.045 110.737 142.469 115.562 145.93 120.366C149.393 125.173 152.896 129.985 155.689 135.225C158.536 140.567 160.553 146.361 160.97 152.432C160.981 152.591 161.093 152.669 161.214 152.681C161.197 152.811 161.18 152.942 161.162 153.072ZM144.031 176.975C142.544 176.76 141.064 176.492 139.595 176.176C136.701 175.553 133.846 174.776 131.042 173.827C125.379 171.91 119.902 169.431 114.663 166.559C102.867 160.092 92.2525 151.76 81.052 144.363C78.2464 142.51 75.3406 140.722 72.1187 139.692C80.1608 140.552 88.0126 143.271 95.2629 146.945C108.412 153.609 119.807 163.122 132.427 170.661C136.438 173.058 140.602 175.266 144.92 177.087C144.624 177.052 144.327 177.017 144.031 176.975ZM129.355 176.545C126.042 176.066 122.751 175.349 119.584 174.255C116.401 173.156 113.36 171.684 110.47 169.959C98.6818 162.926 89.7558 152.063 78.0972 144.841C75.0609 142.96 71.8679 141.31 68.4338 140.29C67.2815 139.947 66.0379 139.646 64.7683 139.452C66.3802 139.382 67.9886 139.395 69.5924 139.486C70.2477 139.611 70.8971 139.77 71.5353 139.964C74.6011 140.892 77.3883 142.555 80.0414 144.312C85.6302 148.015 91.0562 151.962 96.5626 155.785C106.805 162.896 117.432 169.877 129.138 174.347C132.234 175.529 135.4 176.54 138.621 177.32C138.68 177.335 138.741 177.345 138.8 177.36C135.642 177.232 132.49 177 129.355 176.545ZM69.6604 138.278C69.6623 138.279 69.6628 138.281 69.6642 138.28C79.8698 137.769 89.8498 140.517 98.8948 145.118C109.078 150.3 117.973 157.592 127.016 164.485C129.703 166.532 132.414 168.547 135.182 170.482C135.844 170.944 136.509 171.406 137.177 171.864C129.943 167.932 123.112 163.183 116.343 158.508C104.868 150.582 92.9165 142.672 79.0855 139.675C75.646 138.931 72.1306 138.495 68.6203 138.475C68.9669 138.409 69.3145 138.343 69.6604 138.278ZM79.7068 136.93C86.8119 136.464 93.8996 137.203 100.467 140.086C107.404 143.131 113.307 148.019 118.743 153.213C123.767 158.014 128.459 163.153 133.602 167.826C132.14 166.779 130.684 165.721 129.237 164.652C124.312 161.018 119.463 157.28 114.442 153.775C105.893 147.808 96.5971 142.452 86.4863 139.659C81.6094 138.312 76.5754 137.62 71.534 137.943C74.2356 137.481 76.9524 137.11 79.7068 136.93ZM73.1721 99.0767C68.4934 94.8944 63.4274 91.1728 57.9695 88.0706C46.9346 81.7987 34.779 77.6795 22.9732 73.1366C17.8963 71.1835 12.8316 69.2013 7.75593 67.2453C8.83339 67.5911 9.91045 67.9377 10.9809 68.3003C14.3134 69.4322 17.6782 70.4841 21.0337 71.5453C27.8082 73.6865 34.5746 75.8497 41.352 77.9789C47.4702 79.9009 53.6433 81.7941 59.4286 84.5998C65.4245 87.5068 70.6313 91.5336 74.9743 96.5907C79.0272 101.31 82.3522 106.576 85.5061 111.929C81.7373 107.348 77.588 103.025 73.1721 99.0767ZM86.4462 113.527C86.4255 113.516 86.4042 113.504 86.3829 113.492C86.3897 113.478 86.397 113.466 86.402 113.451C86.4169 113.476 86.4314 113.502 86.4462 113.527ZM71.1501 104.968C63.5922 100.709 56.0512 96.4198 48.5322 92.0911C41.0502 87.7844 33.5863 83.4447 26.1258 79.0998C22.3785 76.918 18.6348 74.7278 14.8964 72.53C11.4163 70.4851 7.95508 68.369 4.40402 66.4441C15.6201 71.1034 26.9059 75.5983 38.1396 80.2155C43.8645 82.5681 49.5749 84.9818 55.0302 87.9191C60.5208 90.8745 65.6394 94.4123 70.3671 98.4776C75.1779 102.615 79.4764 107.226 83.663 111.97C79.4911 109.638 75.3135 107.315 71.1501 104.968ZM69.8558 107.59C64.2009 105.264 58.6309 102.72 53.1821 99.9458C42.2936 94.4027 31.8992 88.0322 22.1351 80.6801C17.9274 77.5129 13.8514 74.1753 9.84333 70.7594C14.1037 73.3767 18.3928 75.9465 22.6864 78.5106C30.1027 82.9404 37.5459 87.3243 45.0107 91.6721C52.511 96.0403 60.0255 100.382 67.5568 104.698C71.135 106.747 74.7178 108.791 78.3054 110.826C75.4692 109.801 72.6471 108.737 69.8558 107.59ZM50.6237 104.129C44.4722 101.415 38.736 98.0524 33.4573 93.879C28.0055 89.5673 23.0494 84.6774 18.139 79.7702C14.4173 76.0506 10.695 72.3482 6.77264 68.8615C7.14601 69.0945 7.52094 69.3237 7.8951 69.5549C16.2384 77.3857 25.4852 84.3072 35.0556 90.5489C45.3095 97.2346 56.0368 103.164 67.2874 108.003C71.3064 109.732 75.3844 111.365 79.5154 112.834C69.671 110.661 59.8857 108.213 50.6237 104.129ZM44.1779 51.8098C36.3551 42.0781 30.01 31.2604 24.4434 20.109C21.7268 14.6658 19.2081 9.12808 16.7808 3.55052C26.8761 19.6408 38.0543 34.977 49.6662 50.0095C56.0932 58.3307 62.6335 66.5651 69.2083 74.7722C59.6445 68.6091 51.2943 60.6633 44.1779 51.8098ZM19.8738 6.54004C19.2183 5.58973 18.5615 4.63998 17.9091 3.68766C18.1085 3.79738 18.3068 3.9099 18.5054 4.0215C20.2187 5.38303 22.0009 6.66891 23.6924 8.05102C26.0442 9.97416 28.3676 11.947 30.5988 14.0089C35.0357 18.1121 39.223 22.4783 43.1316 27.0878C50.963 36.3226 57.6257 46.4592 63.1965 57.2031C64.7575 60.2135 66.1762 63.2931 67.4983 66.4148C68.4481 68.6583 69.302 70.9366 70.1715 73.2093C65.2439 67.0719 60.3287 60.9233 55.4606 54.7383C43.093 39.0271 31.226 22.9994 19.8738 6.54004ZM45.1636 25.1543C53.8966 34.6899 61.0108 45.7884 65.8907 57.7647C67.8854 62.6589 69.4481 67.6893 70.7597 72.794C69.0941 67.9758 66.9231 63.2983 64.745 58.7168C62.1507 53.2598 59.1919 47.9804 55.928 42.8968C49.3523 32.6546 41.5585 23.2035 32.7878 14.7663C30.6634 12.7226 28.4831 10.7337 26.249 8.81028C33.1546 13.5041 39.5163 18.989 45.1636 25.1543ZM103.099 74.6768C102.343 68.679 101.438 62.6902 100.035 56.806C98.6684 51.0768 96.8048 45.4532 94.1414 40.1905C91.2096 34.3966 87.2564 29.2779 82.6767 24.6927C79.9922 22.0048 77.1254 19.5057 74.1814 17.1097C71.9573 15.2993 69.6848 13.5336 67.3447 11.8695C67.1931 11.7215 67.0489 11.5666 66.8943 11.4206C66.8204 11.3501 66.7345 11.3241 66.6477 11.3186C66.3295 10.9008 66.0178 10.478 65.6932 10.0652C65.283 9.54405 64.2739 9.76909 64.3795 10.527C64.3791 10.528 64.38 10.5283 64.38 10.5283C64.3688 10.5973 64.3751 10.6693 64.4126 10.7399C66.126 22.9373 69.2831 34.9174 73.7789 46.3834C78.2766 57.8557 84.1252 68.7509 91.0801 78.9173C94.8811 84.4738 99.0775 89.7579 103.59 94.7539C103.712 94.9612 103.837 95.1693 103.96 95.3747C104.314 95.9661 104.668 96.5571 105.036 97.1398C105.402 97.7231 105.763 98.3094 106.117 98.9014C106.291 99.1943 106.447 99.5112 106.645 99.7889C106.719 99.8921 106.809 99.9561 106.897 100.023C108.384 103.745 109.873 107.465 111.345 111.192C114.494 119.165 117.466 127.212 120.653 135.168C120.516 135.007 120.381 134.845 120.243 134.685C119.629 133.972 119.015 133.259 118.401 132.546C117.877 131.937 117.35 131.336 116.814 130.743C116.781 130.523 116.665 130.313 116.419 130.177C116.334 130.129 116.249 130.082 116.164 130.035C115.729 129.569 115.284 129.11 114.827 128.659C109.466 121.995 104.103 115.332 98.7401 108.669C98.9139 108.521 99.0034 108.291 98.8853 108.013C97.8839 105.654 96.8307 103.315 95.7362 100.997C96.5817 96.6097 96.0989 91.9667 94.7418 87.7207C94.8474 87.6339 94.9506 87.5396 95.0261 87.4248C95.1484 87.2373 95.239 87.0705 95.2828 86.8447C95.326 86.6175 95.3024 86.403 95.2441 86.1818C95.2329 86.1375 95.2177 86.0949 95.199 86.053C95.1525 85.951 95.1019 85.843 95.036 85.7506C94.9416 85.6187 94.825 85.4897 94.693 85.395C94.561 85.3002 94.4198 85.2093 94.2651 85.1557C94.0349 85.0749 93.8565 85.0411 93.6103 85.0382C93.4491 85.0369 93.2796 85.0716 93.1307 85.1304C92.8842 85.2254 92.7094 85.3569 92.523 85.5397C92.3921 85.6687 92.2853 85.8374 92.2159 86.0064C92.1161 86.2451 92.0798 86.4609 92.0772 86.7172C92.0767 86.8105 92.0963 86.8979 92.1152 86.9894C92.1361 87.0894 92.1563 87.1781 92.2003 87.2702C92.3117 87.5037 92.4389 87.6966 92.6385 87.8691C92.8054 88.0147 92.9967 88.1122 93.2045 88.1781C93.416 88.2456 93.6415 88.2826 93.8624 88.2408C93.9756 88.2199 94.0727 88.1956 94.1654 88.1606C94.5647 89.974 94.8049 91.8363 94.9055 93.6777C95.0026 95.4351 94.9041 97.1526 94.7151 98.8763C91.8754 93.0406 88.7622 87.3359 85.4251 81.7719C84.2359 79.788 82.9982 77.8333 81.7413 75.8904C82.3448 75.5541 82.8088 74.9253 82.8681 74.2517C82.8954 73.9497 82.8807 73.6532 82.7733 73.3652C82.662 73.0657 82.4957 72.84 82.2779 72.6138C81.9671 72.2914 81.49 72.0646 81.045 72.0293C80.8886 72.0167 80.7341 72.0204 80.5831 72.0397C80.5401 72.0427 80.4964 72.0365 80.4541 72.0431C79.4157 72.1909 78.5423 73.115 78.6286 74.1981C78.6712 74.7384 78.9454 75.2247 79.3394 75.5873C79.7382 75.9541 80.2588 76.1321 80.7933 76.1454C80.9295 76.1484 81.0649 76.1324 81.1967 76.1039C83.2797 79.5127 85.2692 82.9716 87.1678 86.4794C84.2064 83.9804 81.3228 81.4006 78.6031 78.6364C78.6467 78.582 78.7005 78.5374 78.7367 78.4744C78.8648 78.2574 78.9142 77.9734 78.8913 77.7229C78.8684 77.467 78.7761 77.1931 78.6166 76.9879C78.5379 76.8868 78.4495 76.7849 78.3444 76.7102C78.1775 76.591 78.0489 76.5329 77.8532 76.4775C77.6074 76.4078 77.3531 76.4346 77.1093 76.4944C76.8556 76.5566 76.6443 76.707 76.458 76.8843C76.273 77.0611 76.1364 77.3329 76.11 77.588C76.1034 77.6512 76.1191 77.7084 76.1201 77.7693C76.0865 77.8234 76.0442 77.8718 76.0318 77.9359C75.9667 78.2628 76.1235 78.556 76.3481 78.7818C76.5281 78.9616 76.8059 79.0391 77.0524 79.052C77.062 79.0527 77.0717 79.0479 77.0813 79.0486C77.3851 79.169 77.7322 79.1886 78.0334 79.0758C78.0387 79.0737 78.0416 79.0694 78.0478 79.0676C80.9774 82.4298 84.128 85.6315 87.611 88.4221C87.8245 88.5928 88.0569 88.5843 88.2434 88.4852C90.3911 92.5447 92.4238 96.6661 94.3379 100.85C95.1281 102.578 95.8928 104.32 96.646 106.066C95.4894 104.63 94.3346 103.193 93.1791 101.757C86.4096 93.3501 79.6177 84.9599 72.8507 76.5494C70.8108 64.2464 65.804 52.3843 59.4634 41.7191C52.7829 30.4829 43.9947 20.4556 33.7972 12.2823C28.2349 7.82427 22.2244 3.92577 15.8779 0.678755C15.8058 0.569464 15.7308 0.462208 15.6588 0.352932C15.5147 0.134365 15.2754 0.159725 15.1218 0.290249C14.5129 0.00499923 13.7216 0.664212 14.0032 1.31968C19.0431 13.0472 24.4186 24.7401 31.1051 35.6357C37.6331 46.2736 45.1632 56.3217 54.2543 64.9159C59.3497 69.7332 64.9115 74.037 70.9087 77.6726C71.1545 77.8214 71.3764 77.8009 71.5587 77.6989C71.742 77.9262 71.924 78.154 72.1073 78.3813C72.1224 78.4503 72.1394 78.5201 72.1546 78.5891C72.2002 78.7984 72.3609 78.9008 72.5391 78.9192C74.8866 81.8424 77.2354 84.7652 79.5846 87.687C72.9836 84.7647 66.4515 81.6854 60.0023 78.4417C58.9026 77.8887 57.8132 77.3136 56.7211 76.745C56.709 76.6817 56.6847 76.6188 56.6319 76.5582C55.9097 75.7362 54.9621 75.1323 54.1016 74.4648C53.2372 73.7934 52.3843 73.1049 51.5455 72.4013C49.807 70.9424 48.123 69.416 46.4987 67.831C43.2734 64.6817 40.3405 61.2696 37.6252 57.6736C36.4772 56.1545 35.3752 54.5986 34.3038 53.0224C34.5405 52.9035 34.7543 52.7366 34.9248 52.5417C35.2728 52.146 35.4817 51.5591 35.3976 51.0312C35.3816 50.9299 35.35 50.832 35.32 50.7326C35.2257 50.295 34.993 49.8701 34.6287 49.6155C34.2199 49.3303 33.714 49.1882 33.2155 49.2758C32.7035 49.3665 32.2376 49.5919 31.8926 49.9911C31.5716 50.3618 31.3868 50.8961 31.4588 51.387C31.5341 51.8991 31.7779 52.3474 32.1662 52.6923C32.5472 53.0307 33.034 53.2001 33.539 53.2076C33.6136 53.208 33.6866 53.1912 33.7601 53.1812C38.1039 60.434 43.6619 66.9525 49.9946 72.5463C50.6455 73.1207 51.3174 73.671 51.9842 74.2257C47.583 71.8322 43.2347 69.341 38.9485 66.746C35.4085 64.6024 31.8966 62.4101 28.416 60.1693C28.4663 59.8592 28.4528 59.539 28.352 59.2406C28.195 58.7714 27.8121 58.3585 27.3499 58.1774C26.8999 58.0015 26.3642 57.9492 25.9134 58.1567C25.6501 58.2788 25.3989 58.4378 25.2293 58.6804C25.065 58.9131 24.9432 59.1625 24.8966 59.4476C24.8599 59.6699 24.8759 59.8789 24.9135 60.0915C24.9071 60.157 24.8899 60.2191 24.8904 60.2864C24.8919 60.5565 24.9868 60.8216 25.1203 61.0523C25.26 61.2944 25.4728 61.4669 25.7088 61.6073C25.9601 61.7563 26.2613 61.8118 26.5607 61.806C26.5667 61.8074 26.5731 61.8079 26.5782 61.8089C26.6094 61.8131 26.6414 61.8023 26.6727 61.8011C26.842 61.7882 27.0094 61.7614 27.1636 61.7082C27.6475 61.5397 28.0507 61.1671 28.2638 60.7018C28.2658 60.6971 28.2668 60.6921 28.2688 60.6874C34.4999 64.9002 40.873 68.8864 47.3852 72.6503C54.3781 76.6932 61.4554 80.5997 68.6987 84.1775C72.8213 86.2136 76.9866 88.1532 81.1974 89.9996C81.3005 90.0449 81.4005 90.0636 81.4951 90.0636C83.4439 92.4881 85.3944 94.9111 87.3392 97.3373C95.3953 107.382 103.459 117.422 111.52 127.462C105.596 124.187 99.6717 120.908 93.7558 117.617C92.294 116.804 90.8375 115.981 89.3761 115.167C89.3551 115.099 89.3469 115.031 89.3082 114.964C85.8379 108.945 82.333 102.898 77.9924 97.4537C73.765 92.149 68.7515 87.6333 62.7904 84.3614C57.1218 81.2503 50.9562 79.2073 44.8021 77.3001C38.0262 75.199 31.2311 73.1624 24.4451 71.0934C20.5683 69.9111 16.6837 68.7553 12.8037 67.5861C9.02916 66.4487 5.23125 65.2357 1.3874 64.351C1.19428 64.1999 1.00575 64.043 0.81129 63.8925C0.409506 63.5827 -0.0927163 64.1713 0.301243 64.4998C0.38665 64.5718 0.470334 64.6453 0.555737 64.7172C0.533087 64.8057 0.538849 64.8972 0.631606 64.9568C0.900508 65.1319 1.17309 65.3008 1.44332 65.4753C11.7611 74.3137 20.4689 84.8859 30.9143 93.5873C36.0663 97.8794 41.6881 101.653 47.7423 104.554C53.6701 107.396 59.9115 109.552 66.2348 111.325C73.3251 113.313 80.5428 114.886 87.762 116.329C87.8746 116.352 87.9736 116.344 88.0686 116.33C88.7458 116.709 89.4211 117.094 90.0996 117.473C97.6732 121.708 105.271 125.897 112.896 130.039C113.305 130.261 113.715 130.483 114.124 130.706C117.909 135.419 121.692 140.135 125.477 144.848C126.18 145.724 126.883 146.599 127.587 147.474C127.412 147.325 127.241 147.175 127.066 147.029C123.477 144.05 119.587 141.447 115.465 139.268C109.943 136.349 104.108 134.022 98.2009 131.932C98.1815 131.781 98.1072 131.632 97.9391 131.513C92.3667 127.582 86.7546 123.709 81.0672 119.948C81.0773 119.929 81.0917 119.913 81.0995 119.895C81.1693 119.736 81.1871 119.617 81.1886 119.445C81.19 119.344 81.1768 119.257 81.1543 119.161C81.1431 119.116 81.1302 119.074 81.112 119.033C81.1321 118.419 80.8147 117.805 80.2389 117.524C79.8696 117.345 79.458 117.345 79.0694 117.451C78.9046 117.496 78.7416 117.581 78.6001 117.674C78.5287 117.722 78.4677 117.781 78.4043 117.838C78.3383 117.898 78.2726 117.955 78.2187 118.026C77.9745 118.356 77.8353 118.757 77.8793 119.17C77.8978 119.342 77.936 119.522 78.008 119.678C78.0587 119.789 78.1128 119.901 78.1793 120.003C78.2487 120.108 78.3385 120.198 78.4235 120.29C78.5451 120.42 78.6957 120.515 78.8499 120.601C79.0003 120.686 79.1789 120.743 79.3493 120.767C79.7792 120.828 80.2183 120.743 80.5842 120.504C80.619 120.481 80.6522 120.454 80.6845 120.427C85.1479 123.869 89.6675 127.235 94.2209 130.557C92.6255 130.019 91.0292 129.488 89.4344 128.967C85.0535 127.535 80.6455 126.161 76.1774 125.02C76.0468 124.637 75.8186 124.284 75.5202 124.029C74.991 123.579 74.2739 123.456 73.6174 123.661C73.0379 123.842 72.5069 124.315 72.2725 124.876C72.0045 125.518 72.0665 126.23 72.4561 126.808C72.79 127.304 73.3639 127.684 73.9598 127.763C74.664 127.857 75.3936 127.604 75.8355 127.03C75.9861 126.836 76.086 126.613 76.1589 126.38C76.2453 126.139 76.3004 125.886 76.2963 125.625C76.2962 125.609 76.2911 125.595 76.2906 125.581C79.9698 126.78 83.6591 127.948 87.3203 129.204C91.7103 130.709 96.0676 132.315 100.382 134.026C108.865 137.391 117.182 141.365 124.392 147.029C126.441 148.639 128.418 150.358 130.292 152.168C131.214 153.061 132.133 153.954 133.005 154.896C133.897 155.858 134.652 156.989 135.701 157.78C135.782 157.841 135.877 157.868 135.974 157.875C141.635 164.865 147.343 171.816 153.205 178.636C152.828 178.526 152.449 178.419 152.074 178.302C150.048 177.519 148.076 176.606 146.174 175.513C142.956 173.661 139.969 171.43 137.137 169.035C131.352 164.145 126.264 158.526 120.838 153.257C115.454 148.028 109.661 143.03 102.886 139.688C96.4453 136.509 89.3619 135.339 82.2212 135.601C75.1821 135.859 68.1868 137.357 61.3775 139.084C60.8229 139.182 60.2719 139.3 59.7208 139.424C59.5082 139.462 59.3009 139.518 59.0906 139.569C58.8189 139.635 58.5447 139.683 58.2745 139.756C58.0391 139.819 58.119 140.225 58.3624 140.18C58.3651 140.179 58.3683 140.179 58.3709 140.178C58.4053 140.195 58.4369 140.217 58.481 140.217C58.4909 140.217 58.5009 140.217 58.51 140.216C58.5509 140.363 58.6687 140.484 58.8447 140.449C59.2888 140.363 59.7315 140.272 60.1745 140.183C61.1995 140.165 62.2245 140.168 63.2482 140.284C64.7826 140.46 66.3043 140.822 67.7746 141.294C70.8144 142.268 73.6926 143.737 76.4094 145.4C82.2473 148.975 87.4571 153.439 92.6133 157.914C97.7396 162.362 102.869 166.834 108.604 170.494C114.305 174.133 120.513 176.587 127.165 177.817C134.652 179.202 142.322 179.243 149.91 179.189C150.02 179.187 150.108 179.16 150.192 179.129C151.262 179.589 152.344 180.019 153.456 180.381C154.018 180.564 154.584 180.726 155.154 180.876C157.715 183.825 160.297 186.756 162.926 189.648C175.987 204.018 190.01 217.606 205.686 229.119C207.636 230.55 209.611 231.948 211.607 233.314C212.633 234.016 213.9 232.532 212.862 231.82C196.901 220.881 182.555 207.789 169.293 193.736C168.49 192.886 167.704 192.021 166.908 191.164C167.062 191.063 167.176 190.892 167.203 190.637C168.07 182.567 167.168 174.324 165.318 166.449C164.534 163.111 163.556 159.825 162.439 156.586C162.557 156.479 162.658 156.346 162.702 156.152C165.422 144.086 163.622 131.038 158.03 120.04C151.222 106.656 138.746 97.8486 128.791 87.0268C127.374 85.4855 126.008 83.8898 124.711 82.2415C123.925 81.1364 123.138 80.0322 122.364 78.9189C121.791 78.0958 121.244 77.2391 120.664 76.4106C119.026 73.6816 117.694 70.8185 116.561 67.8382C116.502 67.477 116.439 67.1164 116.39 66.7531C116.327 66.2856 115.602 66.3335 115.655 66.8085C115.659 66.841 115.664 66.8729 115.668 66.9054C115.54 66.9973 115.456 67.1555 115.501 67.3525C115.616 67.8583 115.753 68.3575 115.899 68.8553C115.765 68.8607 115.631 68.9522 115.641 69.1157C115.859 72.4502 116.525 75.7575 117.128 79.0408C117.731 82.3228 118.364 85.5977 119.053 88.8629C120.42 95.3359 122.086 101.762 124.176 108.041C128.301 120.431 134.263 132.356 143.07 142.101C145.494 144.785 148.119 147.286 150.948 149.541C152.361 150.666 153.823 151.728 155.333 152.721C156.835 153.709 158.366 154.725 160.04 155.394C160.105 155.42 160.171 155.426 160.236 155.431C161.182 158.052 162.042 160.705 162.781 163.394C164.929 171.202 166.042 179.246 165.78 187.349C165.754 188.171 165.705 188.992 165.655 189.812C164.023 188.038 162.409 186.247 160.805 184.448C159.551 182.783 158.218 181.191 157.058 179.452C155.865 177.664 154.792 175.799 153.783 173.901C151.765 170.111 149.968 166.211 147.978 162.409C144.097 154.998 139.506 147.926 134.316 141.361C134.433 141.258 134.495 141.086 134.398 140.911C130.285 133.471 126.558 125.786 123.647 117.793C123.242 116.681 122.852 115.564 122.466 114.447C122.268 113.88 122.089 113.276 121.877 112.686C121.909 112.671 121.942 112.662 121.972 112.645C122.897 112.142 123.221 110.878 122.883 109.93C122.682 109.367 122.273 108.887 121.741 108.614C121.254 108.366 120.62 108.328 120.112 108.536C119.53 108.773 119.129 109.232 118.977 109.841C118.859 110.309 118.961 110.842 119.212 111.257C119.219 111.442 119.248 111.627 119.329 111.804C119.553 112.291 119.951 112.631 120.459 112.794C120.512 112.81 120.566 112.815 120.619 112.828C120.767 113.37 120.951 113.907 121.116 114.416C121.456 115.465 121.816 116.508 122.193 117.546C122.921 119.546 123.696 121.529 124.518 123.493C126.167 127.435 128.007 131.289 130.043 135.045C130.742 136.335 131.493 137.588 132.265 138.83C131.164 137.501 130.049 136.185 128.892 134.905C127.615 133.491 126.319 132.099 124.913 130.818C125.017 130.7 125.107 130.569 125.173 130.428C125.386 129.971 125.393 129.395 125.18 128.936C125.05 128.654 124.898 128.422 124.664 128.212C124.442 128.014 124.172 127.889 123.885 127.816C123.388 127.689 122.866 127.828 122.436 128.084C122.006 128.339 121.702 128.784 121.592 129.266C121.53 129.54 121.555 129.833 121.637 130.099C121.723 130.382 121.9 130.607 122.105 130.812C122.155 130.862 122.21 130.905 122.27 130.945C122.39 131.023 122.51 131.108 122.645 131.16C122.665 131.167 122.685 131.17 122.705 131.177C122.772 131.216 122.834 131.265 122.908 131.29C123.185 131.389 123.479 131.447 123.775 131.403C123.852 131.391 123.923 131.367 123.997 131.349C126.489 134.335 129.197 137.144 131.665 140.156C134.416 143.513 137.025 146.992 139.464 150.582C141.926 154.205 144.215 157.946 146.318 161.79C148.381 165.558 150.216 169.442 152.224 173.239C152.931 174.575 153.674 175.893 154.457 177.187C146.544 167.988 138.893 158.561 131.285 149.112C128.54 145.701 125.797 142.29 123.052 138.88C120.192 130.461 117.025 122.15 113.849 113.846C110.991 106.37 108.038 98.93 105.051 91.505C104.427 85.8923 103.807 80.2792 103.099 74.6768Z" fill="#6D6D6D"/>
</svg>
