<svg width="446" height="427" viewBox="0 0 446 427" fill="none" xmlns="http://www.w3.org/2000/svg">
<g clip-path="url(#clip0_224_3)">
<path d="M310.429 269.425C328.195 264.947 346.57 262.151 364.927 263.383C380.281 264.413 395.581 268.215 409.073 275.646C407.321 275.093 405.565 274.558 403.8 274.056C399.996 272.973 396.16 272.001 392.303 271.133C378.322 267.986 364.004 266.292 349.674 266.129C342.566 266.048 335.438 266.31 328.362 267C324.787 267.349 321.21 267.769 317.662 268.335C314.712 268.806 311.742 269.317 308.838 270.049C308.481 270.074 308.127 270.11 307.77 270.136C308.656 269.895 309.54 269.649 310.429 269.425ZM318.608 261.921C330.46 256.347 342.936 252.089 355.714 249.221C365.083 247.118 374.602 245.822 384.175 245.279C381.08 245.955 377.991 246.659 374.91 247.371C362.791 250.169 350.696 252.93 338.761 256.453C329.29 259.248 319.878 262.401 310.84 266.397C310.27 266.485 309.7 266.569 309.13 266.658C312.257 265.005 315.419 263.422 318.608 261.921ZM376.078 251.781C364.805 256.025 353.101 259.015 341.302 261.375C338.937 261.847 336.568 262.278 334.197 262.696C334.184 262.698 334.172 262.7 334.159 262.7C330.631 263.186 327.119 263.774 323.621 264.441C320.535 264.921 317.448 265.393 314.359 265.861C317.49 264.639 320.636 263.46 323.8 262.341C335.455 258.222 347.384 254.978 359.413 252.158C365.443 250.745 371.494 249.435 377.572 248.246C381.521 247.473 385.483 246.745 389.433 245.963C385.079 248.117 380.627 250.068 376.078 251.781ZM390.422 274.496C376.02 272.312 361.488 270.908 346.941 270.174C337.674 269.707 328.338 269.414 319.031 269.617C319.037 269.616 319.045 269.615 319.052 269.613C323 269.067 326.962 268.651 330.934 268.324C345.104 267.158 359.389 267.518 373.492 269.313C380.528 270.209 387.515 271.507 394.412 273.157C397.843 273.978 401.247 274.903 404.625 275.915C407.108 276.659 409.556 277.553 412.029 278.341C404.859 276.885 397.656 275.593 390.422 274.496ZM384.457 280.553C374.919 280.56 365.38 279.948 355.921 278.718C346.23 277.459 336.75 275.287 327.189 273.32C322.532 272.363 317.646 271.539 312.718 271.087C317.802 271.048 322.886 271.005 327.969 271.065C342.486 271.235 356.997 272.094 371.425 273.709C383.556 275.067 395.631 276.935 407.616 279.262C399.924 280.093 392.193 280.547 384.457 280.553ZM278.576 301.925C285.421 303.394 292.207 305.12 298.919 307.116C311.246 310.782 323.349 315.281 335.04 320.645C346.748 326.016 357.922 332.314 368.913 339.014C368.52 339.429 368.046 339.774 367.505 340.021C367.193 340.163 366.872 340.272 366.549 340.372C363.147 339.537 359.752 338.622 356.366 337.719C352.955 336.808 349.559 335.832 346.184 334.796C334.021 331.06 322.15 326.414 310.663 320.945C299.205 315.49 288.16 309.182 277.624 302.11C277.629 302.083 277.642 302.058 277.647 302.03C277.65 302.007 277.632 301.987 277.632 301.965C277.946 301.952 278.26 301.935 278.576 301.925ZM289.912 295.764C300.276 292.873 310.913 291.021 321.656 290.383C327.078 290.063 332.512 290.065 337.935 290.347C341.985 290.559 347.29 290.478 350.61 293.233C345.34 293.051 340.02 293.225 334.754 293.44C325.025 293.84 315.279 294.583 305.596 295.616C300.747 296.134 295.907 296.743 291.079 297.444C287.73 297.931 284.381 298.445 281.056 299.079C280.614 299.056 280.172 299.03 279.731 299.025C283.092 297.831 286.483 296.72 289.912 295.764ZM349.11 295.269C344.417 296.264 339.736 297.285 334.998 298.061C325.632 299.597 316.197 300.405 306.707 300.452C303.662 300.468 300.618 300.388 297.577 300.266C294.435 299.931 291.286 299.671 288.131 299.556C287.321 299.527 286.51 299.509 285.7 299.493C285.597 299.484 285.494 299.479 285.391 299.468C285.223 299.454 285.055 299.436 284.888 299.42C287.606 298.987 290.325 298.551 293.051 298.165C302.609 296.817 312.219 295.835 321.854 295.235C326.67 294.935 331.491 294.836 336.314 294.765C340.869 294.697 345.426 294.754 349.981 294.704C349.692 294.894 349.403 295.086 349.11 295.269ZM337.934 300.396C330.743 302.655 323.215 303.406 315.698 303.424C313.016 302.77 310.319 302.182 307.602 301.69C312.606 301.508 317.603 301.157 322.593 300.658C330.609 299.855 338.728 298.689 346.582 296.733C343.824 298.218 340.933 299.454 337.934 300.396ZM338.99 313.901C346.23 317.177 353.174 321.105 359.689 325.656C361.323 326.797 362.93 327.977 364.507 329.195C365.932 330.294 367.325 331.427 368.436 332.856C369.384 334.075 370.179 335.603 369.874 337.192C369.792 337.619 369.618 337.995 369.41 338.346C363.457 334.305 357.227 330.648 350.905 327.221C339.464 321.017 327.578 315.591 315.391 311.026C307.558 308.092 299.591 305.524 291.528 303.308C292.464 303.398 293.399 303.49 294.334 303.575C299.818 304.071 305.336 304.556 310.855 304.739C320.528 306.762 329.979 309.825 338.99 313.901ZM358.066 340.16C353.653 339.326 349.271 338.334 344.932 337.18C336.25 334.873 327.733 331.935 319.462 328.429C305.237 322.401 291.792 314.629 279.437 305.366C284.51 308.658 289.69 311.78 294.983 314.705C306.25 320.932 317.979 326.304 330.05 330.775C336.063 333.002 342.158 335.007 348.32 336.781C351.38 337.661 354.46 338.47 357.553 339.226C359.935 339.81 362.323 340.282 364.72 340.734C362.508 340.968 360.176 340.561 358.066 340.16ZM209.259 333.885C209.252 333.908 209.246 333.932 209.241 333.956C209.193 333.936 209.145 333.917 209.098 333.898C209.151 333.893 209.206 333.89 209.259 333.885ZM212.87 333.604C230.709 332.419 248.79 334.086 266.115 338.5C281.998 342.546 297.285 348.929 311.307 357.423C308.645 356.442 305.949 355.554 303.257 354.661C299.578 353.442 295.887 352.264 292.181 351.128C278.815 347.031 265.282 343.486 251.621 340.515C238.722 337.709 225.718 335.405 212.639 333.621C212.717 333.616 212.793 333.609 212.87 333.604ZM293.101 358.278C278.127 355.843 263.288 352.432 248.745 348.114C236.674 344.528 224.781 340.326 213.123 335.563C219.866 336.483 226.598 337.498 233.302 338.666C247.044 341.057 260.688 344.012 274.201 347.473C280.945 349.201 287.653 351.063 294.322 353.057C300.33 354.853 306.263 356.897 312.26 358.719C305.972 360.023 299.394 359.3 293.101 358.278ZM177.211 314.053C178.297 303.692 179.785 293.385 181.61 283.13C182.522 278.004 183.376 272.87 184.362 267.758C184.843 265.254 185.348 262.754 185.865 260.258C185.937 259.91 186.017 259.562 186.093 259.214C185.867 262.177 185.62 265.138 185.314 268.091C183.167 288.791 180.288 309.429 176.367 329.869C176.336 330.03 176.347 330.171 176.373 330.303C176.206 330.841 176.028 331.376 175.864 331.914C175.86 331.926 175.862 331.937 175.859 331.95C175.829 331.168 175.784 330.388 175.727 329.608C176.224 324.423 176.668 319.233 177.211 314.053ZM175.182 323.088C174.977 320.102 174.816 317.116 174.767 314.124C174.595 303.479 175.496 292.854 177.532 282.402C178.553 277.158 179.856 271.972 181.421 266.864C182.152 264.472 182.948 262.101 183.799 259.748C183.739 260.05 183.681 260.354 183.619 260.654C183.047 263.465 182.499 266.279 181.974 269.098C180.066 279.338 178.623 289.628 177.464 299.979C176.579 307.881 175.73 315.814 175.236 323.759C175.218 323.536 175.197 323.312 175.182 323.088ZM171.816 315.3C170.55 304.071 171.848 292.693 174.668 281.79C176.177 275.955 178.111 270.236 180.317 264.629C180.324 264.612 180.33 264.595 180.338 264.578C179.931 265.881 179.536 267.189 179.167 268.504C176.254 278.867 174.451 289.51 173.717 300.248C173.353 305.564 173.265 310.901 173.465 316.226C173.568 318.931 173.734 321.633 174.004 324.325C174.145 325.735 174.296 327.14 174.502 328.535C173.348 324.179 172.326 319.816 171.816 315.3ZM175.817 332.417C175.83 332.394 175.835 332.364 175.842 332.337C175.845 332.354 175.845 332.374 175.848 332.391C175.838 332.4 175.827 332.409 175.817 332.417ZM183.176 323.408C185.203 320.301 187.187 317.168 189.149 314.022C196.081 302.904 202.547 291.479 208.685 279.907C211.754 274.122 214.757 268.306 217.66 262.436C219.123 259.478 220.572 256.514 221.97 253.526C223.357 250.564 224.941 247.592 226.007 244.498C226.021 244.458 226.015 244.419 226.022 244.378C226.305 244.245 226.578 244.092 226.871 243.977C225.399 254.056 222.09 263.695 217.766 272.907C213.773 281.408 209.065 289.581 204.165 297.587C199.427 305.327 194.311 312.863 188.435 319.791C185.563 323.179 182.47 326.399 179.197 329.417C180.591 327.456 181.878 325.4 183.176 323.408ZM185.785 310.013C191.113 296.946 197.367 284.252 204.508 272.08C208.047 266.049 211.773 260.111 215.766 254.368C217.861 251.357 220.277 248.217 223.295 245.998C222.06 248.517 220.986 251.137 219.801 253.664C218.228 257.023 216.651 260.38 215.03 263.717C209.273 275.566 203.087 287.202 196.524 298.623C193.264 304.3 189.902 309.919 186.491 315.506C184.771 318.322 183.021 321.12 181.268 323.916C180.763 324.722 180.244 325.526 179.724 326.332C181.611 320.844 183.593 315.393 185.785 310.013ZM229.751 303.898C234.977 292.719 240.201 281.54 245.427 270.361C250.676 259.132 255.954 247.918 261.219 236.696C266.276 225.915 271.253 215.079 276.943 204.612C279.761 199.427 282.762 194.332 286.031 189.417C287.105 187.799 288.611 185.777 290.643 185.371C291.169 185.266 291.611 185.322 291.98 185.491C291.962 185.524 291.937 185.544 291.922 185.581C288.034 195.282 283.928 204.896 279.604 214.41C271.932 231.288 263.591 247.875 254.622 264.101C245.995 279.71 236.618 294.851 227.022 309.876C227.006 309.851 226.994 309.826 226.977 309.803C227.92 307.842 228.831 305.867 229.751 303.898ZM293.547 188.22C293.394 188.282 293.265 188.41 293.199 188.625C290.244 198.181 287.124 207.64 283.446 216.946C276.891 233.531 269.113 249.67 260.172 265.102C255.711 272.801 250.95 280.328 245.922 287.67C242.431 292.765 238.783 297.746 235.074 302.685C233.211 304.435 231.311 306.145 229.383 307.824C234.191 300.695 238.782 293.421 243.244 286.069C252.897 270.173 261.955 253.902 270.265 237.263C278.541 220.696 286.139 203.794 293.056 186.616C293.308 187.102 293.471 187.663 293.547 188.22ZM292.784 195.486C292.382 197.891 291.931 200.289 291.431 202.675C290.426 207.477 289.222 212.236 287.832 216.941C285.054 226.331 281.552 235.507 277.374 244.364C273.213 253.184 268.381 261.681 262.94 269.774C257.474 277.907 251.411 285.64 244.797 292.872C243.231 294.584 241.624 296.255 239.994 297.901C243.029 293.797 245.954 289.609 248.8 285.374C258.694 270.652 267.549 255.188 275.156 239.164C278.972 231.125 282.488 222.945 285.694 214.643C288.345 207.781 290.864 200.83 293.084 193.803C292.982 194.37 292.876 194.932 292.784 195.486ZM285.406 263.849C290.194 258.312 294.76 252.595 299.095 246.693C307.919 234.677 315.737 221.892 322.631 208.679C329.99 194.579 336.222 179.897 342.243 165.186C342.316 165.008 342.313 164.85 342.283 164.702C342.585 164.564 342.906 164.524 343.208 164.713C343.635 164.982 343.708 165.613 343.724 166.068C343.791 167.925 342.894 169.836 342.328 171.563C340.863 176.032 339.233 180.446 337.454 184.799C333.929 193.42 329.826 201.804 325.244 209.912C316.054 226.176 305.083 241.362 293.05 255.633C290.395 258.779 287.686 261.879 284.942 264.947C285.099 264.581 285.252 264.215 285.406 263.849ZM310.884 212.57C315.559 204.36 320.459 196.275 325.574 188.332C328.159 184.317 330.801 180.337 333.495 176.396C334.814 174.466 336.146 172.546 337.492 170.636C337.963 169.966 338.438 169.299 338.912 168.631C336.057 175.487 333.222 182.348 330.213 189.14C324.005 203.155 316.991 216.767 308.885 229.784C302.01 240.826 294.454 251.447 286.368 261.638C293.657 244.861 301.833 228.465 310.884 212.57ZM369.035 221.279C386.588 213.929 405.121 209.14 424.089 208.245C419.216 209.929 414.345 211.614 409.474 213.299C396.506 217.783 383.54 222.275 370.586 226.802C358.096 231.168 345.622 235.569 333.177 240.061C344.648 232.931 356.546 226.511 369.035 221.279ZM342.754 225.215C351.115 214.599 359.907 204.313 369.13 194.438C375.387 187.738 381.849 181.235 388.475 174.901C387.988 175.665 387.507 176.433 387.011 177.193C385.146 180.053 383.222 182.876 381.253 185.664C374.143 195.734 366.335 205.324 357.939 214.348C353.733 218.868 349.365 223.239 344.882 227.483C342.848 229.41 340.774 231.293 338.693 233.167C337.247 234.135 335.799 235.1 334.35 236.063C337.129 232.428 339.927 228.806 342.754 225.215ZM392.126 173.381C392.917 172.102 393.733 170.847 394.284 169.444C394.801 168.964 395.308 168.476 395.827 167.999C394.383 173.941 392.051 179.655 389.12 185.019C382.966 196.284 374.186 205.898 364.478 214.2C359.688 218.297 354.668 222.091 349.534 225.734C358.044 217.719 365.992 209.07 373.315 199.964C377.209 195.123 380.943 190.15 384.483 185.044C386.239 182.51 387.953 179.947 389.62 177.354C390.466 176.037 391.302 174.713 392.126 173.381ZM429.802 208.136C423.969 211.86 417.978 215.324 411.808 218.464C387.432 230.871 360.801 238.601 333.593 241.263C333.596 241.153 333.567 241.043 333.496 240.948C333.477 240.921 333.449 240.916 333.426 240.896C340.374 238.618 347.326 236.347 354.249 233.994C367.246 229.572 380.243 225.149 393.229 220.699C405.423 216.52 417.613 212.328 429.802 208.136ZM309.514 256.032C315.536 251.673 321.669 247.457 327.913 243.415C328.125 243.727 328.465 243.954 328.936 243.919C337.139 243.307 345.304 242.234 353.385 240.7C382.165 235.235 409.789 224.009 434.235 207.868C435.016 207.352 434.572 205.971 433.668 205.935C433.237 205.919 432.807 205.919 432.376 205.907C432.146 205.691 431.82 205.571 431.447 205.7C431.279 205.758 431.109 205.818 430.941 205.875C429.221 205.85 427.501 205.847 425.781 205.892C403.774 206.476 382.271 212.633 362.308 221.679C358.033 223.616 353.844 225.717 349.701 227.899C350.11 227.61 350.519 227.318 350.929 227.029C354.265 225.136 357.542 223.155 360.763 221.049C368.94 215.702 376.752 209.803 384.163 203.436C384.788 202.9 385.393 202.341 386.013 201.798C390.224 200.908 394.292 199.497 398.214 197.716C398.724 198.39 399.775 198.402 400.562 198.547C401.479 198.715 402.4 198.877 403.326 198.994C404.786 199.182 406.247 199.282 407.714 199.352C407.711 199.427 407.704 199.498 407.708 199.584C407.725 199.968 407.893 200.326 408.107 200.64C408.319 200.95 408.65 201.2 408.995 201.344C409.166 201.416 409.36 201.465 409.547 201.476C409.819 201.491 410.036 201.454 410.29 201.37C410.612 201.264 410.899 201.023 411.104 200.759C411.308 200.494 411.462 200.131 411.476 199.795C411.487 199.538 411.456 199.341 411.374 199.1C411.353 199.039 411.306 198.99 411.276 198.931C411.252 198.756 411.21 198.584 411.135 198.431C410.935 198.026 410.603 197.697 410.182 197.524C409.401 197.2 408.461 197.578 408.037 198.288C407.995 198.357 407.972 198.433 407.935 198.505C406.473 198.281 405.014 198.026 403.565 197.737C402.681 197.562 401.795 197.392 400.914 197.197C400.598 197.127 400.245 197.008 399.887 196.918C401.444 196.171 402.985 195.394 404.496 194.56C405.462 194.024 406.43 193.482 407.365 192.892C407.553 192.774 407.762 192.651 407.975 192.527C408.438 193.133 409.329 193.376 410.048 193.175C410.49 193.052 410.863 192.845 411.165 192.493C411.258 192.386 411.327 192.264 411.386 192.137C411.484 192.096 411.577 192.039 411.645 191.952C411.855 191.683 411.881 191.361 411.816 191.037C411.758 190.734 411.633 190.454 411.418 190.228C411.353 190.159 411.278 190.118 411.209 190.062C411.083 189.877 410.932 189.708 410.738 189.582C410.324 189.315 409.809 189.178 409.319 189.297C408.839 189.412 408.458 189.659 408.125 190.018C407.903 190.254 407.77 190.551 407.679 190.86C407.288 191.106 406.906 191.358 406.55 191.563C405.606 192.103 404.675 192.659 403.723 193.185C401.739 194.282 399.711 195.302 397.649 196.244C394.357 197.747 390.992 199.088 387.611 200.383C390.108 198.154 392.576 195.891 394.96 193.544C397.862 190.686 400.899 187.813 403.424 184.588C404.29 185.113 405.388 185.171 406.231 184.568C406.725 184.216 407 183.646 407.106 183.066C407.197 182.563 407.103 181.967 406.867 181.514C406.824 181.43 406.768 181.351 406.716 181.271C406.713 181.258 406.715 181.245 406.712 181.232C406.643 181.004 406.516 180.847 406.342 180.692C406.144 180.517 405.89 180.373 405.636 180.3C405.02 180.121 404.408 180.15 403.811 180.392C403.333 180.586 402.86 180.952 402.595 181.401C402.413 181.708 402.282 182.016 402.245 182.376C402.209 182.728 402.267 183.035 402.373 183.365C402.395 183.432 402.448 183.49 402.478 183.556C401.006 184.962 399.625 186.45 398.208 187.926C396.344 189.866 394.439 191.762 392.519 193.643C385.603 200.415 378.259 206.729 370.574 212.611C367.251 215.152 363.843 217.593 360.391 219.97C368.115 213.868 375.376 207.177 381.576 199.513C389.656 189.523 395.799 177.969 398.372 165.318C398.539 164.498 397.404 163.94 396.812 164.466C391.096 169.543 385.528 174.775 380.101 180.16C370.48 189.705 361.294 199.68 352.569 210.049C350.948 211.976 349.367 213.934 347.784 215.892C347.662 215.777 347.464 215.729 347.323 215.841C346.245 216.705 345.352 217.77 344.422 218.788C343.487 219.814 342.472 220.806 341.601 221.882C339.85 224.041 338.16 226.242 336.505 228.477C334.82 230.753 333.183 233.058 331.599 235.404C330.531 236.985 329.441 238.611 328.489 240.292C323.577 243.427 318.739 246.681 313.964 250.025C315.857 247.057 317.688 244.049 319.501 241.03C322.245 236.454 324.989 231.88 327.734 227.305C329.521 225.65 331.288 223.979 333.002 222.244C336.57 218.631 339.98 214.855 343.236 210.961C344.881 208.995 346.492 207 348.068 204.98C348.841 203.99 349.605 202.993 350.361 201.99C350.813 201.39 351.271 200.781 351.674 200.141C351.707 200.149 351.735 200.162 351.768 200.17C352.102 200.236 352.435 200.177 352.75 200.069C353.285 199.886 353.722 199.383 353.907 198.86C354.096 198.323 354.113 197.673 353.829 197.164C353.689 196.912 353.504 196.686 353.267 196.517C353.243 196.5 353.223 196.477 353.198 196.46C353.193 196.457 353.191 196.453 353.187 196.449C352.904 196.281 352.617 196.165 352.284 196.133C351.723 196.077 351.077 196.24 350.661 196.639C350.643 196.657 350.629 196.679 350.609 196.699C350.481 196.811 350.363 196.936 350.278 197.079C350.156 197.284 350.087 197.434 350.032 197.657C349.978 197.878 349.972 198.039 349.983 198.273C350.001 198.696 350.206 199.107 350.488 199.435C349.934 200.095 349.429 200.801 348.915 201.484C348.07 202.609 347.215 203.725 346.347 204.835C341.081 211.575 335.427 218.045 329.551 224.276C330.113 223.339 330.676 222.403 331.238 221.466C333.194 218.205 335.149 214.944 337.106 211.684C338.098 210.03 339.091 208.378 340.085 206.726C340.662 205.767 341.26 204.82 341.79 203.839C342.116 203.851 342.443 203.797 342.725 203.632C342.89 203.535 343.037 203.415 343.169 203.279C343.277 203.225 343.387 203.168 343.487 203.104C343.559 203.056 343.625 203.002 343.686 202.939C343.802 202.822 343.915 202.711 343.998 202.569C344.141 202.325 344.202 202.177 344.26 201.898C344.327 201.577 344.261 201.246 344.156 200.943C343.963 200.398 343.497 199.994 342.989 199.756C342.865 199.698 342.738 199.667 342.607 199.635C342.486 199.605 342.369 199.575 342.243 199.569C341.893 199.55 341.589 199.601 341.261 199.724C341.023 199.814 340.787 199.961 340.599 200.133C340.341 200.371 340.16 200.614 340.004 200.926C339.746 201.443 339.735 202.089 339.964 202.618C340.122 202.982 340.404 203.302 340.744 203.52C339.995 204.667 339.33 205.879 338.634 207.047C337.539 208.889 336.44 210.728 335.343 212.568C332.334 217.608 329.325 222.646 326.316 227.686C326.301 227.702 326.285 227.719 326.269 227.735C326.215 227.791 326.19 227.855 326.178 227.92C325.334 229.333 324.488 230.748 323.644 232.161C319.913 238.411 316.076 244.615 312.578 251.001C309.413 253.234 306.265 255.492 303.15 257.791C292.17 265.898 281.443 274.341 270.652 282.7C280.836 272.541 290.595 261.958 299.686 250.806C311.852 235.886 322.791 219.922 331.605 202.786C335.998 194.245 339.86 185.424 343.05 176.362C343.848 174.097 344.604 171.815 345.315 169.521C345.818 167.898 346.264 166.103 345.663 164.44C345.055 162.762 343.233 161.956 341.572 162.614C339.723 163.347 338.617 165.336 337.523 166.871C326.216 182.756 315.812 199.281 306.356 216.332C296.894 233.396 288.365 250.968 280.843 268.971C280.757 269.177 280.751 269.363 280.777 269.538C278.636 271.868 276.481 274.186 274.297 276.474C269.806 281.177 265.204 285.769 260.635 290.394C254.996 294.683 249.318 298.919 243.544 303.029C234.075 309.768 224.338 316.158 214.252 321.919C219.802 318.156 225.14 314.079 230.226 309.708C230.377 309.814 230.601 309.828 230.755 309.645C231.149 309.178 231.521 308.694 231.91 308.224C239.006 301.977 245.657 295.217 251.771 288.007C258.247 280.365 264.131 272.228 269.357 263.682C274.584 255.136 279.171 246.194 283.032 236.95C286.896 227.702 290.011 218.159 292.356 208.416C293.537 203.507 294.516 198.551 295.284 193.562C295.612 191.428 296.067 189.139 295.528 186.999C295.004 184.922 293.383 183.212 291.126 183.245C288.926 183.276 287.12 184.855 285.754 186.43C283.931 188.531 282.536 191.088 281.086 193.452C277.936 198.589 275.029 203.872 272.263 209.225C266.626 220.132 261.539 231.318 256.323 242.429C250.918 253.943 245.516 265.46 240.094 276.968C237.394 282.697 234.694 288.426 231.996 294.155C229.3 299.875 226.42 305.544 223.946 311.362C223.78 311.75 223.872 312.091 224.08 312.338C223.873 312.506 223.675 312.684 223.467 312.851C215.846 318.999 207.717 324.45 199.392 329.591C199.266 329.668 199.207 329.777 199.187 329.892C196.541 331.177 193.868 332.409 191.17 333.592C193.394 330.782 195.593 327.954 197.695 325.048C201.183 320.231 204.548 315.328 207.849 310.382C207.876 310.379 207.901 310.379 207.927 310.371C209.222 309.929 210.431 309.192 211.616 308.516C212.77 307.857 213.89 307.128 214.993 306.387C216.112 305.637 217.215 304.86 218.287 304.046C218.838 303.629 219.378 303.198 219.914 302.763C219.959 302.725 220.004 302.686 220.05 302.65C220.076 302.698 220.087 302.753 220.118 302.801C220.26 303.015 220.561 303.035 220.778 302.959C220.808 302.948 220.817 302.944 220.824 302.941C220.854 302.933 220.885 302.926 220.915 302.917C220.983 302.9 221.049 302.881 221.116 302.864C221.209 302.839 221.301 302.815 221.394 302.791C221.541 302.8 221.689 302.791 221.841 302.752C222.131 302.677 222.396 302.567 222.632 302.376C223.419 301.742 223.488 300.455 222.82 299.705C222.445 299.283 221.923 299.062 221.357 299.131C220.891 299.186 220.448 299.482 220.174 299.855C219.893 300.238 219.783 300.718 219.887 301.178C219.613 301.355 219.356 301.561 219.106 301.76C218.564 302.188 218.015 302.607 217.465 303.025C216.42 303.819 215.359 304.592 214.277 305.333C213.165 306.093 212.027 306.808 210.891 307.53C210.262 307.931 209.614 308.31 208.974 308.702C209.566 307.808 210.178 306.927 210.764 306.027C212.852 302.825 214.902 299.601 216.909 296.349C217.913 294.723 218.906 293.092 219.891 291.454C220.429 290.561 220.981 289.674 221.492 288.769C221.549 288.798 221.596 288.839 221.657 288.863C222.325 289.129 223.104 288.971 223.632 288.486C224.126 288.031 224.452 287.338 224.295 286.657C224.25 286.465 224.17 286.291 224.071 286.132C224.18 285.839 224.242 285.536 224.213 285.208C224.194 285.002 224.063 284.805 223.92 284.668C223.755 284.509 223.575 284.444 223.357 284.398C222.599 284.236 221.727 284.478 221.137 284.973C220.497 285.509 220.148 286.362 220.327 287.191C220.377 287.418 220.465 287.633 220.573 287.837C219.805 289.031 219.109 290.276 218.377 291.486C217.254 293.343 216.12 295.19 214.973 297.031C214.345 298.039 213.691 299.028 213.055 300.031C213.419 298.777 213.709 297.501 214.016 296.226C214.224 295.366 214.428 294.504 214.631 293.644C215.041 293.536 215.417 293.318 215.649 292.941C215.862 292.595 215.941 292.234 215.904 291.83C215.885 291.615 215.805 291.417 215.707 291.225C215.837 291.065 215.924 290.87 215.889 290.66C215.869 290.535 215.83 290.368 215.783 290.262C215.714 290.107 215.583 289.975 215.447 289.876C215.252 289.735 214.978 289.656 214.744 289.625C214.363 289.574 213.998 289.634 213.638 289.75C213.024 289.946 212.485 290.47 212.305 291.093C212.117 291.743 212.195 292.413 212.586 292.974C212.693 293.127 212.835 293.253 212.988 293.364C212.79 294.22 212.593 295.076 212.399 295.934C211.912 298.094 211.351 300.23 211.269 302.451C211.266 302.552 211.305 302.63 211.347 302.703C204.485 313.385 197.251 323.818 189.853 334.138C187.731 335.052 185.602 335.957 183.446 336.801C183.371 336.83 183.295 336.856 183.22 336.886C183.087 336.931 182.952 336.965 182.82 337.012C182.777 337.026 182.747 337.053 182.713 337.076C176.125 339.621 169.379 341.816 162.522 343.585C166.38 341.605 170.064 339.272 173.568 336.647C187.938 325.876 198.521 311.028 207.681 295.779C217.475 279.472 227.094 261.826 229.105 242.59C229.165 242.01 228.588 241.302 227.946 241.493C221.505 243.411 217.256 248.812 213.617 254.144C205.489 266.051 198.247 278.574 191.939 291.537C187.979 299.673 184.325 308.007 181.116 316.5C181.321 315.289 181.537 314.079 181.735 312.866C185.089 292.305 187.172 271.604 188.487 250.817C188.528 250.176 187.858 249.563 187.22 249.897C186.742 250.148 186.308 250.446 185.896 250.765C185.642 250.804 185.399 250.944 185.254 251.245C185.237 251.28 185.223 251.317 185.206 251.351C183.85 252.622 182.85 254.242 182.026 255.944C180.581 258.928 179.374 262.049 178.184 265.14C173.805 276.511 170.546 288.433 169.799 300.636C169.46 306.167 169.622 311.743 170.394 317.232C171.151 322.639 172.44 328.214 175.018 333.063C169.071 337.962 162.555 342.134 155.503 345.244C151.51 346.091 147.487 346.77 143.444 347.301C141.201 347.577 138.954 347.822 136.704 348.018C134.342 348.223 131.974 348.336 129.606 348.444C125.932 348.567 122.251 348.558 118.57 348.371C118.029 348.345 117.933 349.165 118.479 349.215C119.076 349.269 119.674 349.306 120.271 349.352C120.238 349.584 120.356 349.847 120.631 349.885C123.694 350.306 126.791 350.334 129.879 350.265C135.312 350.144 140.737 349.763 146.127 349.061C146.998 348.948 147.867 348.818 148.736 348.69C148.814 348.733 148.903 348.757 149.008 348.731C149.191 348.685 149.368 348.622 149.55 348.575C151.08 348.342 152.606 348.097 154.129 347.823C154.864 347.691 155.595 347.541 156.328 347.399C156.417 347.509 156.549 347.579 156.711 347.535C159.723 346.727 162.767 346.005 165.755 345.116C170.985 343.559 176.169 341.872 181.323 340.081C183.941 339.17 186.551 338.235 189.152 337.276C189.874 337.01 190.592 336.737 191.312 336.467C193.507 336.045 195.704 335.632 197.913 335.282C200.118 334.932 202.33 334.634 204.547 334.374C204.654 334.496 204.792 334.603 204.973 334.681C212.96 338.12 221.062 341.297 229.274 344.154C243.847 349.223 258.74 353.4 273.815 356.682C281.172 358.284 288.594 359.766 296.057 360.792C302.768 361.715 309.667 361.992 316.187 359.858C316.923 359.617 317.001 358.465 316.379 358.064C307.797 352.516 298.697 347.764 289.232 343.91C272.498 337.095 254.648 332.968 236.626 331.707C227.618 331.077 218.559 331.168 209.565 331.984C208.201 332.108 206.842 332.282 205.482 332.439C205.313 332.421 205.157 332.436 205.016 332.492C202.442 332.796 199.874 333.156 197.315 333.577C197.326 333.407 197.286 333.24 197.208 333.099C207.707 328.204 217.803 322.513 227.588 316.311C230.601 316.538 233.625 316.608 236.642 316.786C238.525 316.897 240.407 317.042 242.286 317.204C242.291 317.51 242.426 317.821 242.761 317.999C245.388 319.4 248.07 320.705 250.756 321.986C259.12 325.976 267.691 329.525 276.477 332.464C276.223 333.244 276.415 334.13 276.92 334.768C277.467 335.461 278.413 335.916 279.3 335.723C280.125 335.544 280.825 334.917 281.07 334.11C281.084 334.09 281.104 334.076 281.117 334.056C281.506 333.464 281.561 332.777 281.305 332.12C281.132 331.678 280.774 331.264 280.369 331.022C279.874 330.725 279.368 330.612 278.795 330.646C278.045 330.69 277.365 331.097 276.901 331.673C275.258 331.015 273.618 330.353 271.977 329.689C262.972 326.043 254.22 321.92 245.575 317.507C248.074 317.761 250.567 318.053 253.055 318.396C255.751 318.768 258.444 319.188 261.125 319.659C262.915 319.975 264.741 320.409 266.567 320.705C266.564 320.744 266.553 320.78 266.553 320.819C266.537 321.545 266.739 322.309 267.261 322.839C267.778 323.363 268.439 323.613 269.163 323.592C269.628 323.649 270.094 323.602 270.557 323.45C271.812 323.038 272.498 321.622 272.207 320.363C272.051 319.689 271.714 319.107 271.182 318.66C270.629 318.195 269.884 318.037 269.179 318.105C268.313 318.188 267.491 318.718 267.003 319.451C266.327 319.292 265.646 319.151 264.976 319.005C263.441 318.669 261.891 318.399 260.344 318.128C258.195 317.752 256.039 317.425 253.878 317.124C254.653 316.726 255.437 316.344 256.232 315.987C256.927 315.676 257.632 315.389 258.342 315.113C258.55 315.03 258.776 314.959 259.005 314.882C259.021 314.895 259.033 314.912 259.049 314.925C259.308 315.125 259.617 315.243 259.937 315.293C260.251 315.342 260.569 315.278 260.863 315.168C261.151 315.06 261.382 314.862 261.584 314.638C261.641 314.575 261.69 314.509 261.732 314.437C261.805 314.315 261.882 314.189 261.93 314.054C261.939 314.023 261.94 313.994 261.95 313.964C261.953 313.959 261.958 313.955 261.961 313.95C262.068 313.802 262.133 313.638 262.153 313.456C262.151 313.366 262.147 313.275 262.145 313.185C262.124 312.999 262.021 312.842 261.901 312.702C261.845 312.579 261.778 312.46 261.702 312.348C261.621 312.228 261.51 312.13 261.406 312.032C261.348 311.98 261.289 311.932 261.222 311.892C260.957 311.729 260.715 311.629 260.405 311.581C259.916 311.506 259.361 311.669 259.006 312.018C258.917 312.105 258.838 312.199 258.764 312.298C258.724 312.323 258.676 312.338 258.638 312.365C258.373 312.56 258.253 312.915 258.249 313.237C258.247 313.354 258.262 313.47 258.276 313.586C258.062 313.67 257.849 313.752 257.638 313.839C256.954 314.124 256.285 314.445 255.626 314.785C254.439 315.397 253.318 316.118 252.232 316.892C249.44 316.528 246.639 316.225 243.834 315.98C238.939 315.554 233.948 315.213 229.018 315.385C232.522 313.14 235.993 310.844 239.425 308.49C239.638 308.63 239.905 308.696 240.204 308.6C242.107 307.993 244.03 307.457 245.956 306.926C254.439 304.586 263.097 303.058 271.824 302.335C271.887 302.426 271.944 302.519 272.043 302.6C273.789 304.014 275.557 305.4 277.35 306.752C292.161 317.921 308.616 326.94 325.981 333.458C334.669 336.718 343.595 339.347 352.659 341.34C356.521 342.19 360.525 343.254 364.513 342.995C367.549 342.796 370.899 341.529 371.905 338.368C373.108 334.585 370.425 331.212 367.75 328.856C364.76 326.222 361.386 323.931 358.067 321.738C351.196 317.197 343.884 313.322 336.288 310.145C331.148 307.997 325.863 306.188 320.491 304.676C322.588 304.572 324.683 304.421 326.772 304.164C336.03 303.023 345.187 300.08 352.775 294.539C353.087 294.312 353.104 293.844 352.881 293.554C351.187 291.353 348.618 290.277 345.968 289.715C343.078 289.102 340.057 288.994 337.113 288.855C326.034 288.33 314.877 289.108 303.97 291.104C294.17 292.899 284.417 295.666 275.27 299.675C264.543 300.273 253.895 302.16 243.696 305.539C245.749 304.096 247.795 302.646 249.825 301.174C251.411 300.026 252.981 298.859 254.557 297.695C254.688 297.739 254.839 297.724 254.988 297.594C255.407 297.228 255.807 296.841 256.222 296.471C263.461 291.096 270.608 285.599 277.742 280.087C277.882 280.135 278.044 280.13 278.201 280.019C279.196 279.307 280.229 278.663 281.286 278.062C286.882 276.26 292.485 274.494 298.12 272.831C300.017 272.607 301.921 272.46 303.813 272.422C313.315 272.232 322.7 274.226 331.935 276.236C341.259 278.265 350.584 280.09 360.077 281.145C377.922 283.125 395.996 282.881 413.789 280.483C413.998 280.527 414.209 280.564 414.418 280.607C414.788 280.685 415.044 280.531 415.194 280.297C415.725 280.221 416.259 280.164 416.79 280.086C417.596 279.966 417.897 278.823 417.209 278.354C408.678 272.538 399.157 268.299 389.225 265.524C376.217 261.891 362.719 260.727 349.277 261.324C353.398 260.386 357.499 259.36 361.567 258.206C373.157 254.918 384.491 250.647 395.093 244.894C395.162 244.856 395.221 244.805 395.275 244.749C395.395 244.723 395.518 244.7 395.639 244.672C396.678 244.44 396.434 242.838 395.371 243.028C394.786 243.132 394.203 243.251 393.618 243.36C386.573 243.389 379.537 243.856 372.546 244.729C359.42 246.367 346.475 249.473 334.041 253.987C327.856 256.232 321.795 258.82 315.896 261.739C312.543 263.398 309.286 265.208 306.094 267.128C305.9 267.158 305.706 267.187 305.512 267.218C305.103 267.283 304.904 267.568 304.866 267.879C303.998 268.412 303.136 268.957 302.274 269.505C299.948 270.154 297.625 270.821 295.312 271.518C291.521 272.178 287.849 273.307 284.371 274.984C284.361 274.987 284.351 274.991 284.342 274.993C292.661 268.576 301.003 262.193 309.514 256.032Z" fill="#E5E5E5"/>
</g>
<g clip-path="url(#clip1_224_3)">
<path d="M143.697 31.4126C144.19 33.218 144.861 34.9928 145.526 36.7407C148.254 43.9086 151.858 50.7237 156.116 57.0969C160.061 62.9968 164.538 68.5212 169.28 73.7995C169.236 73.624 169.183 73.45 169.137 73.2741C161.859 61.8836 155.208 50.0361 149.33 37.8672C148.474 36.0959 147.631 34.3174 146.802 32.5329C146.365 31.5943 145.932 30.6536 145.503 29.7102C145.143 28.9226 144.69 28.128 144.549 27.2692C144.407 27.3434 144.265 27.42 144.134 27.531C143.015 28.4718 143.363 30.1891 143.697 31.4126ZM171.187 75.8945C171.185 75.8784 171.182 75.8623 171.178 75.8468C171.171 75.8509 171.165 75.8578 171.158 75.8626C171.168 75.874 171.178 75.8842 171.187 75.8945ZM185.001 34.7957C185.033 32.7801 185.005 30.7641 184.907 28.7501C184.857 27.7363 184.796 26.7216 184.708 25.7085C184.703 25.6518 184.699 25.5798 184.693 25.5129C183.581 32.2643 182.288 38.9934 181.088 45.7294C179.789 53.0355 178.455 60.3347 177.106 67.6319C176.483 71.0042 175.783 74.3609 175.098 77.7227C175.099 77.8104 175.097 77.8974 175.097 77.9859C181.388 64.4815 184.763 49.7029 185.001 34.7957ZM181.48 25.3786C180.883 26.22 180.368 27.1155 179.926 28.0468C179.039 29.9102 178.43 31.9042 177.994 33.9185C177.064 38.2171 176.686 42.6579 176.288 47.0306C175.871 51.6242 175.571 56.2306 175.384 60.8397C175.226 64.7138 175.162 68.5947 175.13 72.4769C177.088 60.308 179.192 48.1681 181.336 36.0285C182.062 31.9152 182.726 27.7847 183.526 23.6838C183.537 23.6253 183.567 23.5824 183.587 23.5321C183.515 23.5421 183.452 23.5382 183.37 23.5669C182.54 23.8558 181.963 24.6968 181.48 25.3786ZM151.76 32.8782C150.779 31.3414 149.832 29.6489 148.534 28.3531C147.91 27.7294 146.986 27.1799 146.054 27.0418C146.357 27.5307 146.563 28.0753 146.802 28.6117C147.163 29.4151 147.524 30.2179 147.89 31.0189C148.62 32.6214 149.362 34.2182 150.113 35.8098C151.615 38.9938 153.153 42.162 154.715 45.3162C157.86 51.6667 161.114 57.9725 164.607 64.138C165.898 66.4152 167.198 68.6863 168.506 70.9536C164.84 57.5227 159.264 44.6161 151.76 32.8782ZM160.477 75.4647C158.741 72.4687 156.835 69.5714 154.766 66.7948C154.039 65.8167 153.214 64.4206 152.001 63.9822C151.752 63.8924 151.549 63.8921 151.367 63.9281C157.038 74.3021 161.729 85.203 165.61 96.3655C169.528 107.633 172.62 119.256 174.576 131.028C175.191 134.725 175.695 138.437 176.108 142.159C176.116 139.963 176.104 137.766 176.035 135.568C175.599 121.686 173.554 107.75 169.08 94.5695C166.831 87.9473 163.985 81.5176 160.477 75.4647ZM151.204 71.207C151.533 72.9967 151.876 74.7849 152.233 76.5698C152.928 80.0431 153.676 83.5061 154.477 86.9561C156.1 93.9529 157.941 100.9 159.993 107.783C164.077 121.478 169.077 134.872 174.821 147.955C175.186 148.786 175.562 149.61 175.933 150.437C175.963 149.7 175.965 148.962 175.988 148.224C174.837 137.388 172.954 126.609 170.307 116.042C167.393 104.406 163.508 93.0252 158.67 82.0485C156.162 76.3611 153.383 70.797 150.425 65.3299C150.381 65.6311 150.37 65.9333 150.379 66.1879C150.445 67.8591 150.903 69.5657 151.204 71.207ZM188.878 138.342C192.883 134.624 196.782 130.788 200.573 126.851C206.941 120.239 213.101 113.088 216.961 104.675C217.913 102.603 218.727 100.459 219.338 98.2623C219.802 96.5952 220.673 94.0811 219.847 92.3455C214.25 99.2829 208.893 106.419 203.542 113.547C198.062 120.846 192.765 128.27 187.556 135.766C185.33 138.969 183.134 142.193 180.94 145.419C181.542 144.916 182.14 144.41 182.725 143.896C184.798 142.07 186.854 140.222 188.878 138.342ZM213.982 93.549C212.208 95.1442 210.48 96.7916 208.803 98.4892C202.111 105.259 196.227 112.83 191.269 120.956C190.474 122.259 189.713 123.581 188.968 124.91C187.502 128.196 185.882 131.412 184.093 134.533C182.357 138.332 180.79 142.21 179.385 146.144C179.364 146.312 179.343 146.48 179.32 146.65C183.969 139.446 188.806 132.361 193.748 125.356C199.007 117.901 204.264 110.447 209.76 103.163C212.772 99.1701 215.834 95.216 218.873 91.2433C217.214 90.2766 215.131 92.516 213.982 93.549ZM196.652 87.2141C196.968 82.2035 196.931 77.1726 196.518 72.1685C196.416 70.9206 196.29 69.6748 196.142 68.4307C196.049 67.649 196.016 65.9073 195.236 65.3236C194.569 75.2177 193.226 85.1058 191.495 94.8674C189.723 104.856 187.521 114.771 184.806 124.546C183.711 128.485 182.484 132.379 181.192 136.254C181.941 135.045 182.661 133.819 183.361 132.579C184.567 129.957 185.872 127.383 187.265 124.858C188.472 122.187 189.583 119.47 190.57 116.711C193.961 107.224 196.018 97.2712 196.652 87.2141ZM192.018 67.0859C191.195 68.0967 190.506 69.2144 189.957 70.3942C188.831 72.8083 188.178 75.4146 187.674 78.0195C187.105 80.9516 186.642 83.9076 186.173 86.8567C185.199 92.9914 184.364 99.1485 183.627 105.317C182.418 115.439 181.451 125.587 180.46 135.731C182.686 127.632 184.77 119.49 186.551 111.282C188.689 101.436 190.444 91.5045 191.775 81.5162C192.485 76.1882 193.041 70.8406 193.592 65.4935C192.958 65.9218 192.398 66.6198 192.018 67.0859ZM167.673 165.538C167.636 164.78 167.577 164.023 167.533 163.265C166.617 174.509 166.052 185.778 166.014 197.064C166.003 200.288 166.047 203.514 166.095 206.738C167.828 193.092 168.35 179.272 167.673 165.538ZM163.243 173.761C163.206 182.216 163.665 190.666 164.561 199.074C164.764 200.992 165.028 202.903 165.299 204.813C164.845 191.855 164.982 178.84 165.766 165.905C165.971 162.516 166.246 159.133 166.552 155.752C163.649 161.188 163.269 167.682 163.243 173.761ZM212.407 184.707C214.137 183.329 215.857 181.934 217.534 180.49C218.146 179.964 218.764 179.441 219.156 178.72C219.198 178.643 219.236 178.564 219.269 178.483C204.938 185.682 191.174 194.091 178.484 203.905C175.247 206.409 172.054 208.984 168.917 211.615C184.391 204.376 199.043 195.35 212.407 184.707ZM213.204 178.745C211.304 179.425 209.425 180.168 207.573 180.971C200.171 184.176 193.187 188.333 186.831 193.299C183.279 196.072 179.921 199.096 176.796 202.343C174.905 204.309 173.145 206.379 171.419 208.48C176.282 204.333 181.316 200.4 186.518 196.672C193.106 191.951 199.819 187.452 206.835 183.388C210.624 181.194 214.479 179.124 218.386 177.149C217.63 177.181 216.837 177.527 216.139 177.751C215.155 178.066 214.177 178.397 213.204 178.745ZM208.685 170.303C215.634 165.178 221.566 158.523 225.231 150.657C226.626 147.663 227.631 144.521 228.255 141.294C217.424 153.534 205.429 164.824 192.642 174.99C189.209 177.719 185.71 180.443 182.084 182.928C191.504 180.084 200.734 176.164 208.685 170.303ZM201.991 158.296C199.768 160.38 197.623 162.544 195.543 164.769C193.576 167.542 191.506 170.245 189.374 172.891C187.147 175.652 184.899 178.438 182.55 181.118C185.182 179.142 187.836 177.196 190.417 175.147C193.771 172.485 197.077 169.765 200.313 166.96C206.829 161.312 213.054 155.356 218.971 149.084C222.061 145.809 225.071 142.455 228.018 139.05C218.63 144.426 209.883 150.896 201.991 158.296ZM194.922 162.987C199.525 156.464 203.466 149.481 206.157 141.947C207.076 139.374 207.812 136.737 208.348 134.059C200.109 146.51 192.32 159.232 185.164 172.342C183.625 175.161 182.101 177.99 180.551 180.804C180.911 180.375 181.271 179.944 181.637 179.519C183.555 176.766 185.559 174.073 187.668 171.463C189.789 168.837 192.014 166.296 194.315 163.825C194.517 163.545 194.723 163.269 194.922 162.987ZM192.662 148.629C187.819 155.836 184.185 163.754 181.724 172.074C180.877 174.936 180.188 177.844 179.611 180.773C182.507 174.68 185.78 168.745 189.073 162.87C192.942 155.968 196.99 149.172 201.137 142.434C203.404 138.749 205.738 135.111 208.126 131.504C202.227 136.513 196.996 142.178 192.662 148.629ZM157.171 170.443C157.242 154.551 154.77 138.442 148.454 123.784C147.683 121.994 146.856 120.229 145.973 118.491C145.79 118.134 145.593 117.784 145.407 117.429C147.491 129.99 147.65 142.767 147.498 155.482C147.332 169.386 146.869 183.351 148.291 197.21C148.681 201.019 149.207 204.814 149.927 208.575C150.401 211.049 151.037 213.486 151.63 215.931C154.761 200.961 157.102 185.764 157.171 170.443ZM141.19 118.165C140.822 120.019 140.487 121.88 140.183 123.747C139.009 130.955 138.304 138.238 138.063 145.537C137.579 160.314 139.033 175.13 142.281 189.553C143.888 196.684 145.958 203.695 148.44 210.569C148.996 212.108 149.59 213.629 150.198 215.144C149.759 213.515 149.397 211.862 149.049 210.238C148.336 206.903 147.779 203.534 147.346 200.15C146.466 193.285 146.117 186.361 145.981 179.446C145.703 165.396 146.354 151.336 145.683 137.293C145.313 129.577 144.583 121.878 143.087 114.293C141.709 114.135 141.358 117.318 141.19 118.165ZM134.052 204.858C133.015 202.751 131.88 200.689 130.635 198.697C129.709 197.215 128.592 195.058 126.827 194.424C126.472 194.296 126.161 194.268 125.887 194.309C126.414 195.241 126.67 196.324 126.993 197.343C127.342 198.44 127.691 199.539 128.041 200.636C128.707 202.733 129.349 204.84 129.997 206.943C131.325 211.253 132.626 215.57 133.955 219.879C136.61 228.491 139.314 237.089 142.007 245.69C143.053 249.031 144.069 252.38 145.082 255.731C143.818 238.338 141.835 220.66 134.052 204.858ZM124.175 197.514C124.175 199.747 124.877 202.067 125.359 204.232C127.451 213.611 130.474 222.758 133.96 231.703C135.919 236.728 138.02 241.697 140.189 246.633C141.749 250.183 143.379 253.705 144.924 257.263C139.584 241.218 134.375 225.129 129.088 209.065C128.303 206.68 127.504 204.3 126.74 201.908C126.357 200.711 125.975 199.514 125.593 198.318C125.279 197.333 124.867 196.316 124.668 195.286C124.32 195.944 124.175 196.81 124.175 197.514ZM182.354 237.886C193.713 228.656 204.086 218.216 213.216 206.777C217.685 201.177 221.828 195.324 225.676 189.281C224.021 190.967 222.308 192.601 220.635 194.263C218.368 196.518 216.099 198.772 213.83 201.027L200.22 214.553C191.185 223.534 182.102 232.464 173.06 241.438C170.53 243.948 168 246.46 165.469 248.971C164.231 250.199 163 251.437 161.751 252.657C162.766 252.027 163.778 251.387 164.781 250.733C170.855 246.762 176.722 242.463 182.354 237.886ZM213.734 192.802C208.351 197.045 203.154 201.518 198.157 206.209C188.152 215.603 178.937 225.826 170.659 236.775C166.398 242.412 162.403 248.245 158.654 254.234C162.409 250.142 166.444 246.281 170.355 242.349C174.868 237.811 179.386 233.279 183.894 228.734C192.908 219.646 201.917 210.553 210.951 201.484L218.614 193.791C220.744 191.653 222.836 189.457 225.014 187.363C220.867 187.25 216.822 190.368 213.734 192.802ZM149.528 259.084C149.535 259.081 149.542 259.08 149.549 259.077C149.548 259.069 149.544 259.061 149.544 259.052C149.538 259.063 149.533 259.074 149.528 259.084ZM145.784 25.6816C147.501 25.7154 148.952 26.7306 150.048 27.9807C151.337 29.4532 152.377 31.1878 153.439 32.8253C154.53 34.5028 155.585 36.2023 156.6 37.9271C158.71 41.5154 160.685 45.1954 162.445 48.9682C164.815 54.0475 166.876 59.2791 168.602 64.6166C167.855 61.5996 167.085 58.5878 166.293 55.5784C165.78 53.6227 165.349 51.6496 164.912 49.6767C164.73 48.863 165.996 48.4766 166.313 49.2524C167.869 53.0654 169.117 57.0022 170.196 60.9896C170.236 59.4645 170.335 57.9366 170.353 56.415C170.375 54.6617 170.358 52.907 170.315 51.154C169.315 49.8102 168.527 48.2434 167.741 46.7973C166.783 45.0385 165.86 43.2619 164.972 41.468C163.392 38.2799 161.946 35.0286 160.589 31.7401C160.321 31.7741 160.044 31.7529 159.769 31.6766C158.736 31.3906 158.06 30.2759 158.24 29.229C158.33 28.7041 158.578 28.191 159.031 27.8865C159.363 27.6632 159.727 27.5712 160.102 27.5908C161.011 27.5059 161.767 28.3217 161.848 29.2011C162.032 29.4619 162.136 29.7754 162.121 30.1268C162.104 30.5299 161.903 30.9365 161.615 31.2322C162.938 34.4932 164.349 37.7194 165.888 40.8851C166.742 42.6386 167.628 44.3762 168.545 46.0962C169.089 47.1145 169.701 48.1351 170.261 49.1754C170.054 44.4559 169.546 39.7473 168.755 35.0894C168.394 32.9535 167.914 30.8474 167.462 28.7338C167.078 28.6975 166.697 28.5697 166.401 28.3431C165.975 28.016 165.721 27.5447 165.65 27.0286C165.634 26.9833 165.613 26.9431 165.6 26.8974C165.46 26.3899 165.561 25.8128 165.855 25.3781C166.171 24.9088 166.734 24.5901 167.296 24.5392C167.864 24.4877 168.48 24.6083 168.92 24.9939C169.414 25.427 169.752 26.077 169.677 26.751C169.668 26.8393 169.647 26.9424 169.622 27.0482C169.597 27.2233 169.559 27.3946 169.489 27.5535C169.332 27.9105 169.085 28.1888 168.784 28.3958C169.225 30.2182 169.553 32.0805 169.873 33.9175C170.287 36.2938 170.626 38.682 170.876 41.081C171.362 45.7337 171.598 50.445 171.454 55.1236C171.372 57.7976 171.339 60.5909 170.774 63.2155C171.639 66.6194 172.403 70.0513 173.133 73.4693C173.404 74.7431 173.65 76.0231 173.904 77.3004C173.758 72.5046 173.729 67.7035 173.858 62.8904C173.991 57.9868 174.245 53.0849 174.664 48.1971C175.06 43.5587 175.452 38.8539 176.379 34.2853C176.799 32.2148 177.348 30.1622 178.187 28.22C178.967 26.4163 179.998 24.5061 181.44 23.144C182.693 21.9604 184.803 21.4988 185.672 23.3816C186.109 24.3275 186.06 25.4812 186.13 26.4996C186.203 27.5551 186.262 28.612 186.303 29.6697C186.638 38.2043 185.999 46.7293 184.3 55.1045C182.602 63.471 179.923 71.6265 176.264 79.3417C175.894 80.1218 175.507 80.893 175.117 81.6645C175.123 82.4409 175.139 83.2158 175.146 83.9915C175.967 88.7463 176.677 93.5206 177.248 98.3131C178.724 110.696 179.351 123.187 179.174 135.662C179.374 132.973 179.588 130.285 179.81 127.609C180.348 121.117 180.932 114.628 181.624 108.149C182.315 101.675 183.135 95.213 184.09 88.7732C184.555 85.6317 185.056 82.4961 185.614 79.3694C186.101 76.6422 186.659 73.8994 187.647 71.303C188.578 68.8503 189.947 66.3041 191.967 64.5707C192.807 63.8499 193.943 63.2565 195.08 63.4558C196.461 63.6981 197.163 64.9278 197.448 66.1928C197.741 67.4977 197.816 68.8874 197.947 70.2172C198.074 71.5032 198.176 72.7912 198.255 74.0824C198.414 76.6885 198.479 79.3024 198.448 81.9147C198.322 92.3615 196.645 102.791 193.555 112.769C193.172 114.003 192.766 115.23 192.34 116.45C196.548 110.068 201.333 104.07 206.632 98.5571C208.346 96.7728 210.115 95.0405 211.934 93.3639C213.479 91.942 215.296 89.8252 217.502 89.5324C219.829 89.2227 221.456 91.2879 221.608 93.4402C221.766 95.6915 220.945 98.1016 220.273 100.222C217.351 109.445 211.412 117.362 205.028 124.483C197.543 132.831 189.398 140.634 180.88 147.919C180.13 148.561 179.387 149.227 178.614 149.85C177.642 165.251 175.422 180.563 172.023 195.614C173.55 192.498 175.254 189.467 177.064 186.511C177.002 186.25 177.064 185.968 177.323 185.771C177.425 185.695 177.539 185.634 177.644 185.562C177.79 185.327 177.944 185.098 178.092 184.864C178.783 176.56 180.901 168.508 184.277 160.877C187.828 152.844 192.613 145.355 198.462 138.799C201.772 135.09 205.398 131.612 209.375 128.623C209.84 128.274 210.602 128.596 210.523 129.228C209.541 137.074 207.134 144.593 203.568 151.643C202.452 153.85 201.231 155.997 199.944 158.104C204.008 154.205 208.296 150.542 212.795 147.156C218.056 143.199 223.598 139.616 229.36 136.435C229.906 136.134 230.534 136.677 230.489 137.239C230.444 137.789 230.355 138.331 230.287 138.877C230.286 138.883 230.287 138.886 230.285 138.892C229.287 146.911 225.841 154.495 220.902 160.861C214.876 168.631 206.73 174.464 197.931 178.724C192.585 181.311 186.987 183.324 181.295 184.999C181.291 185 181.29 184.999 181.287 185C181.079 185.159 180.874 185.323 180.66 185.471C180.021 185.91 179.373 186.362 178.703 186.764C175.873 191.356 173.326 196.104 170.787 200.863C169.949 204.281 169.057 207.685 168.093 211.07C170.199 207.916 172.667 204.998 175.249 202.231C178.131 199.14 181.22 196.244 184.488 193.565C191.066 188.171 198.364 183.643 206.13 180.17C208.101 179.289 210.103 178.474 212.131 177.732C213.966 177.059 215.911 176.231 217.841 175.888C219.228 175.641 220.819 176.305 220.731 177.931C220.642 179.602 219.144 180.767 217.99 181.764C210.9 187.88 203.449 193.576 195.618 198.713C186.858 204.457 177.692 209.545 168.178 213.932C167.824 214.095 167.507 214.014 167.285 213.818C164.074 224.682 160.231 235.361 155.746 245.762C153.898 250.05 151.92 254.278 149.845 258.457C150.32 258.003 151.211 257.879 151.78 257.664C152.543 257.378 153.28 257.026 153.982 256.614C154.699 256.195 155.358 255.71 155.999 255.202C156.016 255.091 156.054 254.979 156.123 254.866C163.506 242.862 171.936 231.508 181.296 220.972C190.646 210.447 200.904 200.745 211.945 192.008C216.379 188.498 222.371 183.835 228.354 186.34C228.884 186.561 229.063 187.149 228.764 187.633C221 200.224 211.853 211.936 201.564 222.561C191.328 233.129 179.966 242.606 167.687 250.713C161.371 254.882 154.83 258.8 148.008 262.095C146.926 264.192 145.824 266.279 144.687 268.347C140.65 275.691 136.316 282.932 131.445 289.756C130.264 291.41 129.101 293.078 127.906 294.723C127.548 295.215 126.789 294.685 127.131 294.182C133.918 284.16 140.038 273.681 145.517 262.883C145.305 262.663 145.267 262.274 145.52 262.023C145.498 261.692 145.476 261.361 145.454 261.031C143.279 256.806 141.321 252.464 139.377 248.132C137.308 243.524 135.298 238.89 133.417 234.203C129.664 224.857 126.383 215.299 124.124 205.475C123.59 203.155 122.926 200.75 122.741 198.372C122.61 196.682 122.765 194.578 124.234 193.465C125.694 192.359 127.535 192.845 128.826 193.946C130.403 195.29 131.459 197.217 132.527 198.963C137.823 207.62 141.133 217.363 143.23 227.255C145.362 237.322 146.267 247.595 147.029 257.841C147.072 258.423 147.117 259.005 147.16 259.587C148.637 256.586 150.079 253.568 151.459 250.522C152.119 249.064 152.756 247.594 153.391 246.125C150.864 240.155 149.076 233.855 147.804 227.5C147.59 227.489 147.378 227.448 147.182 227.362C146.628 227.117 146.272 226.667 146.12 226.085C145.983 225.563 146.099 225.005 146.358 224.542C146.627 224.057 147.11 223.759 147.635 223.624C147.873 223.563 148.138 223.553 148.38 223.583C148.698 223.621 149.035 223.709 149.275 223.929C149.497 224.134 149.657 224.356 149.711 224.661C149.738 224.819 149.682 224.981 149.58 225.105C149.756 225.495 149.785 225.963 149.645 226.365C149.512 226.739 149.242 227.031 148.91 227.228C149.555 230.63 150.371 233.983 151.32 237.301C151.385 236.77 151.46 236.241 151.531 235.712C151.602 235.166 151.674 234.621 151.75 234.075C151.743 234.07 151.733 234.064 151.725 234.057C151.631 233.981 151.532 233.893 151.461 233.792C151.392 233.691 151.317 233.582 151.278 233.465C151.212 233.272 151.189 233.148 151.188 232.945C151.188 232.913 151.189 232.881 151.194 232.849C151.208 232.762 151.225 232.672 151.256 232.589C151.303 232.459 151.375 232.354 151.459 232.255C151.471 232.236 151.475 232.212 151.488 232.193C151.552 232.097 151.636 232.004 151.735 231.94C151.879 231.846 152.016 231.77 152.191 231.749C152.322 231.733 152.455 231.738 152.575 231.794C152.644 231.827 152.714 231.863 152.778 231.905C152.785 231.907 152.793 231.906 152.8 231.909C153.096 232.005 153.355 232.232 153.485 232.516C153.56 232.679 153.588 232.858 153.579 233.035C153.569 233.212 153.503 233.358 153.42 233.51C153.36 233.619 153.264 233.717 153.158 233.8C153.073 233.938 152.974 234.068 152.844 234.156C152.786 234.195 152.752 234.218 152.718 234.235C152.63 234.773 152.538 235.31 152.446 235.846C152.263 236.913 152.093 237.984 151.821 239.032C152.439 241.09 153.109 243.133 153.811 245.17C155.244 241.822 156.601 238.441 157.904 235.041C154.151 229.001 151.13 222.504 148.468 215.921C145.634 208.912 143.29 201.709 141.406 194.39C137.614 179.656 135.783 164.423 135.917 149.211C135.984 141.566 136.556 133.923 137.653 126.355C137.923 124.485 138.225 122.618 138.56 120.758C138.886 118.94 139.121 117.019 139.696 115.26C140.229 113.626 141.445 111.963 143.368 112.189C145.169 112.401 146.099 114.228 146.868 115.644C154.734 130.142 158.406 146.655 159.153 163.046C159.914 179.768 157.74 196.455 154.461 212.823C154.051 214.862 153.625 216.899 153.186 218.932C153.098 219.34 152.852 219.669 152.493 219.81C152.507 219.883 152.525 219.956 152.539 220.029C152.569 220.185 152.475 220.293 152.357 220.342C153.896 223.897 155.525 227.415 157.232 230.902C157.655 231.768 158.077 232.635 158.5 233.5C161.107 226.566 163.43 219.525 165.491 212.41C164.567 208.531 164.075 204.519 163.574 200.573C163.027 196.257 162.616 191.926 162.339 187.583C162.068 183.33 161.915 179.07 161.89 174.809C161.868 171.093 161.924 167.358 162.51 163.681C163.146 159.686 164.435 155.792 166.847 152.506C167.198 152.029 168.08 152.15 168.147 152.8C168.156 152.879 168.161 152.96 168.169 153.039C168.32 153.186 168.413 153.396 168.386 153.669C168.357 153.964 168.337 154.258 168.307 154.553C169.679 168.879 169.788 183.322 168.576 197.664C168.425 199.454 168.241 201.24 168.049 203.026C171.221 190.509 173.536 177.78 175.005 164.953C175.138 163.334 175.265 161.716 175.379 160.097C171.204 154.312 167.612 148.086 164.372 141.74C161.796 136.701 159.467 131.536 157.388 126.273C157.388 126.273 157.387 126.274 157.386 126.273C153.745 123.921 150.988 120.025 148.894 116.291C147.797 114.337 146.871 112.287 146.129 110.173C145.783 109.19 145.474 108.19 145.207 107.181C145.111 106.819 144.967 106.342 144.865 105.851C144.65 105.792 144.443 105.708 144.266 105.586C143.891 105.328 143.641 104.944 143.542 104.502C143.449 104.097 143.567 103.684 143.768 103.334C143.788 103.298 143.822 103.274 143.845 103.24C143.883 103.148 143.908 103.052 143.963 102.967C144.405 102.291 145.333 102.077 146.067 102.338C146.865 102.621 147.354 103.482 147.197 104.315C147.11 104.774 146.917 105.172 146.567 105.491C146.495 105.557 146.418 105.608 146.339 105.658C146.398 105.918 146.455 106.172 146.518 106.399C146.813 107.464 147.103 108.524 147.466 109.57C148.173 111.598 149.049 113.566 150.08 115.45C151.126 117.36 152.324 119.185 153.674 120.895C154.631 122.107 155.67 123.252 156.685 124.417C156.217 123.191 155.743 121.967 155.303 120.731C154.598 118.754 153.949 116.763 153.34 114.756C152.949 113.468 152.536 112.168 152.206 110.852C151.966 110.874 151.725 110.858 151.49 110.802C151.241 110.744 150.989 110.623 150.793 110.458C150.656 110.343 150.522 110.223 150.422 110.074C150.271 109.851 150.188 109.673 150.121 109.412C150.037 109.083 150.078 108.728 150.175 108.408C150.379 107.729 150.972 107.221 151.655 107.074C151.834 107.035 152.062 107.081 152.245 107.182C152.589 107.214 152.926 107.332 153.191 107.555C153.357 107.695 153.466 107.816 153.578 107.995C153.688 108.17 153.748 108.33 153.803 108.53C153.874 108.782 153.877 109.064 153.824 109.32C153.757 109.642 153.646 109.954 153.427 110.208C153.37 110.275 153.316 110.329 153.26 110.382C153.619 111.475 153.939 112.583 154.289 113.674C154.87 115.478 155.485 117.271 156.101 119.062C157.333 122.648 158.682 126.194 160.142 129.694C163.026 136.6 166.354 143.317 170.07 149.811C171.799 152.832 173.628 155.795 175.467 158.751C175.57 157.232 175.67 155.713 175.752 154.193C175.498 154.127 175.268 153.957 175.127 153.646C168.973 140.123 163.74 126.181 159.355 111.985C154.975 97.8088 151.482 83.3605 148.935 68.7406C148.681 67.2801 148.368 65.7455 148.802 64.2862C149.174 63.0348 150.24 62.0833 151.585 62.1062C152.896 62.1281 153.987 63.0268 154.82 63.9595C155.926 65.1989 156.869 66.6261 157.816 67.9886C161.958 73.9533 165.396 80.3923 168.151 87.1084C172.685 98.1565 175.387 109.871 176.687 121.728C176.473 115.969 176.096 110.217 175.527 104.481C174.709 96.2153 173.54 87.9871 171.992 79.8276C171.842 79.0428 171.669 78.2646 171.513 77.4828C159.819 66.3183 150.08 52.6073 144.314 37.4499C143.614 35.6085 142.939 33.7417 142.398 31.8456C142.016 30.5123 141.765 28.9914 142.359 27.6798C142.968 26.3332 144.346 25.653 145.784 25.6816Z" fill="#E5E5E5"/>
</g>
<defs>
<clipPath id="clip0_224_3">
<rect width="292" height="292" fill="white" transform="translate(156.484 94) rotate(8.56427)"/>
</clipPath>
<clipPath id="clip1_224_3">
<rect width="218" height="218" fill="white" transform="matrix(-0.540485 -0.841353 -0.841353 0.540485 301.241 183.415)"/>
</clipPath>
</defs>
</svg>
