<svg width="52" height="52" viewBox="0 0 52 52" fill="none" xmlns="http://www.w3.org/2000/svg">
<path d="M31.3675 1C31.3675 1 33.2657 9.20945 37.0971 10.2673C40.9286 11.3251 55.6838 12.6224 49.509 34.1759C43.223 56.1176 18.9136 53.4878 11.644 43.8165C8.52298 39.6644 5.23702 46.5388 6.56621 49.2745" stroke="#C4C4C4" stroke-width="2" stroke-miterlimit="1.5" stroke-linecap="round" stroke-linejoin="round"/>
<path d="M24.8658 3.27967C24.8658 3.27967 25.488 10.8365 30.5977 13.9345C30.5977 13.9345 28.8911 17.1332 28.1699 19.6948C27.4486 22.2565 23.633 28.2093 21.7469 29.3758C19.8608 30.5424 14.6388 33.103 12.6274 34.777C10.6161 36.451 8.29373 37.0017 6.26788 37.1279C4.24203 37.2541 1.05767 39.2894 1 48.7503" stroke="#C4C4C4" stroke-width="2" stroke-miterlimit="1.5" stroke-linecap="round" stroke-linejoin="round"/>
<path fill-rule="evenodd" clip-rule="evenodd" d="M44.2125 25.5726C44.2125 25.5726 49.8517 32.6504 40.4249 41.3582C30.998 50.0658 17.9708 46.9603 15.3566 43.3087C12.7425 39.657 14.9181 35.9624 20.2993 35.6046C25.6806 35.2469 35.7319 33.8764 39.311 29.9369C42.8901 25.9974 43.2854 25.2894 44.2125 25.5726Z" stroke="#C4C4C4" stroke-width="2" stroke-miterlimit="1.5" stroke-linecap="round" stroke-linejoin="round"/>
</svg>
