<svg width="46" height="102" viewBox="0 0 46 102" fill="none" xmlns="http://www.w3.org/2000/svg">
<path fill-rule="evenodd" clip-rule="evenodd" d="M20.525 2.1249C20.525 2.1249 20.1431 9.85685 19.9871 20.9375C19.951 23.4682 19.923 26.1735 19.9894 29.0003C20.1943 37.7613 21.0093 47.6721 21.3015 57.2201C21.4284 61.3657 21.4983 65.4392 21.4808 69.3143C21.4506 75.8462 21.2387 81.807 21.0687 86.5915C20.8184 93.6279 20.525 98.109 20.525 98.109C20.525 98.9662 21.6054 99.6627 22.9362 99.6627C24.267 99.6627 25.3474 98.9662 25.3474 98.109C25.3474 98.109 25.054 93.6279 24.8037 86.5915C24.6337 81.807 24.4218 75.8462 24.3916 69.3143C24.3741 65.4392 24.444 61.3657 24.5709 57.2201C24.8631 47.6721 25.6781 37.7613 25.883 29.0003C25.9494 26.1735 25.9214 23.4682 25.8853 20.9384C25.7293 9.85685 25.3474 2.1249 25.3474 2.1249C25.3474 1.26762 24.267 0.571198 22.9362 0.571198C21.6054 0.571198 20.525 1.26762 20.525 2.1249Z" fill="#4DB0B3"/>
<path fill-rule="evenodd" clip-rule="evenodd" d="M1.45504 86.118C1.45504 86.118 5.88631 90.197 10.7984 94.0401C11.7951 94.8197 12.8604 95.5582 13.8815 96.2692C17.9145 99.0741 21.3958 101.3 21.3958 101.3C21.7637 101.588 22.3132 101.757 22.893 101.757C23.474 101.759 24.0247 101.594 24.3961 101.306C24.3961 101.306 26.1868 99.6325 28.8297 97.4372C29.774 96.6531 30.8358 95.8077 31.9675 94.955C34.4311 93.0987 37.1532 91.1731 39.4375 89.591C42.3808 87.5529 44.6256 86.1272 44.6256 86.1272C45.4778 85.4682 45.3381 84.4876 44.3159 83.9392C43.2936 83.3908 41.7719 83.4795 40.9197 84.1384C40.9197 84.1384 39.1476 85.8192 36.5687 88.0529C34.5673 89.7857 32.12 91.8585 29.7309 93.7559C28.6341 94.6268 27.5362 95.4521 26.5093 96.1924C25.2193 97.1228 24.0573 97.9262 23.1701 98.5276C22.0513 97.4683 20.2664 95.804 18.2126 93.9789C17.3301 93.1956 16.4138 92.3776 15.4206 91.5962C10.5283 87.743 5.18308 84.1476 5.18308 84.1476C4.33897 83.485 2.81842 83.3881 1.78919 83.9319C0.759959 84.4757 0.610931 85.4554 1.45504 86.118Z" fill="#4DB0B3"/>
</svg>
