<svg width="55" height="50" viewBox="0 0 55 50" fill="none" xmlns="http://www.w3.org/2000/svg">
<path d="M53.9101 13.1418C53.9075 13.1547 53.9045 13.1675 53.9013 13.1802C53.3421 15.4227 51.0902 16.8524 48.8095 16.2891C48.2668 16.1671 47.7921 15.9615 47.3716 15.677L44.0873 17.6972C45.3948 20.3975 45.9427 23.4796 45.6127 26.6344L46.5165 26.826C47.3103 26.0702 48.4792 25.6052 49.7178 25.9466C51.5566 26.3722 52.6511 28.2086 52.2508 30.0148L52.2506 30.0155C51.8382 31.87 49.9928 32.9775 48.179 32.5761C46.9649 32.3156 46.0767 31.4203 45.6966 30.34L44.8093 30.125C43.7488 33.152 41.8716 35.6356 39.5408 37.4856L40.9125 39.6341C41.3655 39.5785 41.8554 39.5804 42.3637 39.7072L42.3644 39.7073C44.6023 40.2672 46.034 42.5135 45.4752 44.793C44.9895 47.0634 42.7206 48.4772 40.4575 47.9213C38.174 47.4353 36.7853 45.1638 37.2516 42.9236C37.2543 42.9106 37.2572 42.8977 37.2605 42.8849C37.3804 42.405 37.5775 41.9624 37.8483 41.5606L36.4772 39.413C33.7826 40.7206 30.6943 41.3201 27.5641 40.9351L27.1991 42.7169C27.9924 43.5342 28.3612 44.6921 28.1106 45.8592L28.1092 45.866C27.697 47.7227 25.8498 48.8306 24.0343 48.427L53.9101 13.1418ZM53.9101 13.1418C54.3756 10.9032 52.9867 8.63219 50.7044 8.14471C48.448 7.59261 46.1828 8.99479 45.6907 11.2586C45.5754 11.6759 45.533 12.0966 45.5633 12.5166L42.1535 14.6339C40.2933 12.3104 37.7703 10.445 34.8008 9.38855L35.2077 7.63634C36.2469 7.25759 37.1338 6.37298 37.4003 5.17997C37.9065 3.29035 36.6381 1.48166 34.8441 1.08271L34.8434 1.08254C33.0286 0.680421 31.1806 1.78619 30.7682 3.64349L30.7682 3.64348L30.7665 3.65123C30.5109 4.84726 30.9035 6.03441 31.739 6.85483L31.3355 8.59202C28.2013 8.24428 25.0944 8.794 22.374 10.1114L21.042 7.98098M53.9101 13.1418L21.042 7.98098M21.042 7.98098C21.3201 7.57398 21.5104 7.10683 21.6231 6.59747L21.6232 6.59749L21.6257 6.58557C22.1008 4.30795 20.6658 2.14904 18.4385 1.59323C18.4258 1.59006 18.413 1.58713 18.4002 1.58446C16.1617 1.11853 13.89 2.50675 13.4025 4.78922C12.8391 7.08949 14.2965 9.24729 16.513 9.80181L16.5135 9.80192C17.0214 9.92874 17.5117 9.93071 17.9648 9.87512L19.3371 12.025C17.0036 13.8868 15.129 16.4157 14.0696 19.3956L7.72272 17.9263C7.35193 17.1221 6.62258 16.4761 5.70582 16.2254C5.68351 16.2193 5.66099 16.214 5.63831 16.2094C4.08083 15.8977 2.43821 16.8194 2.08896 18.4761C1.67031 20.1218 2.75991 21.7175 4.34736 22.0543C5.28225 22.2976 6.2459 22.0755 6.9426 21.4673L13.2652 22.9309C12.9348 26.039 13.485 29.1191 14.793 31.8186L12.652 33.1565C12.2223 32.8712 11.7435 32.6844 11.3043 32.5751C11.292 32.572 11.2796 32.5692 11.2671 32.5666C9.02896 32.0996 6.75533 33.4885 6.26852 35.771C5.7147 38.0326 7.12543 40.3039 9.39832 40.7886C11.6772 41.3477 13.9224 39.9161 14.4827 37.6792C14.6104 37.171 14.6127 36.6803 14.5571 36.2267L16.7066 34.8552C18.5697 37.1896 21.1003 39.0638 24.0804 40.1233L23.6808 41.8837C22.6203 42.2666 21.7426 43.1399 21.4767 44.3308C20.9711 46.2184 22.2381 48.0288 24.0341 48.427L21.042 7.98098Z" stroke="#C4C4C4" stroke-width="2" stroke-miterlimit="2" stroke-linejoin="round"/>
<circle cx="33.5" cy="16.5" r="2.5" stroke="#C4C4C4" stroke-width="2"/>
<circle cx="21.5" cy="23.5" r="3.5" stroke="#C4C4C4" stroke-width="2"/>
<circle cx="31.5" cy="29.5" r="4.5" stroke="#C4C4C4" stroke-width="2"/>
</svg>
