<?xml version="1.0" encoding="UTF-8" standalone="no"?>
<!DOCTYPE svg PUBLIC "-//W3C//DTD SVG 1.1//EN" "http://www.w3.org/Graphics/SVG/1.1/DTD/svg11.dtd">
<svg width="100%" height="100%" viewBox="0 0 55 50" version="1.1" xmlns="http://www.w3.org/2000/svg" xmlns:xlink="http://www.w3.org/1999/xlink" xml:space="preserve" xmlns:serif="http://www.serif.com/" style="fill-rule:evenodd;clip-rule:evenodd;">
    <circle cx="33.5" cy="16.5" r="2.5" style="fill:none;stroke:rgb(196,196,196);stroke-width:2px;"/>
    <path d="M53.91,13.142C53.351,15.384 51.09,16.852 48.81,16.289C48.267,16.167 47.792,15.961 47.372,15.677L44.087,17.697C45.395,20.398 45.943,23.48 45.613,26.634L46.517,26.826C47.31,26.07 48.479,25.605 49.718,25.947C51.557,26.372 52.651,28.209 52.251,30.015L52.251,30.016C51.838,31.87 49.993,32.978 48.179,32.576C46.965,32.316 46.077,31.42 45.697,30.34L44.809,30.125C43.749,33.152 41.872,35.636 39.541,37.486L40.913,39.634C41.366,39.579 41.855,39.58 42.364,39.707L42.364,39.707C44.602,40.267 46.034,42.514 45.475,44.793C44.99,47.063 42.721,48.477 40.458,47.921C38.174,47.435 36.785,45.164 37.252,42.924C37.254,42.911 37.257,42.898 37.261,42.885C37.38,42.405 37.578,41.962 37.848,41.561L36.477,39.413C33.783,40.721 30.694,41.32 27.564,40.935L27.199,42.717C27.992,43.534 28.361,44.692 28.111,45.859L28.109,45.866C27.697,47.723 25.948,48.851 24.133,48.448L24.034,48.427L24.133,48.448M53.918,13.102L53.91,13.142L53.918,13.102C54.383,10.863 52.987,8.632 50.704,8.145C48.448,7.593 46.183,8.995 45.691,11.259C45.575,11.676 45.533,12.097 45.563,12.517L42.154,14.634C40.293,12.31 37.77,10.445 34.801,9.389L35.208,7.636C36.247,7.258 37.134,6.373 37.4,5.18C37.907,3.29 36.638,1.482 34.844,1.083L34.843,1.083C33.029,0.68 31.181,1.786 30.768,3.643L30.768,3.643L30.767,3.651C30.511,4.847 30.904,6.034 31.739,6.855L31.336,8.592C28.201,8.244 25.094,8.794 22.374,10.111L21.042,7.981M21.065,7.759L21.042,7.981L21.065,7.759C21.343,7.352 21.51,7.107 21.623,6.597L21.623,6.597L21.626,6.586C22.101,4.308 20.666,2.149 18.439,1.593C18.426,1.59 18.413,1.587 18.4,1.584C16.162,1.119 13.89,2.507 13.403,4.789C12.839,7.089 14.297,9.247 16.513,9.802L16.514,9.802C17.021,9.929 17.512,9.931 17.965,9.875L19.337,12.025C17.004,13.887 15.129,16.416 14.07,19.396L7.723,17.926C7.352,17.122 6.623,16.476 5.706,16.225C5.684,16.219 5.661,16.214 5.638,16.209C4.081,15.898 2.438,16.819 2.089,18.476C1.67,20.122 2.76,21.718 4.347,22.054C5.282,22.298 6.246,22.076 6.943,21.467L13.265,22.931C12.935,26.039 13.485,29.119 14.793,31.819L12.652,33.157C12.222,32.871 11.743,32.684 11.304,32.575C11.292,32.572 11.28,32.569 11.267,32.567C9.029,32.1 6.755,33.489 6.269,35.771C5.715,38.033 7.125,40.304 9.398,40.789C11.677,41.348 13.922,39.916 14.483,37.679C14.61,37.171 14.613,36.68 14.557,36.227L16.707,34.855C18.57,37.19 21.1,39.064 24.08,40.123L23.681,41.884C22.62,42.267 21.743,43.14 21.477,44.331C20.971,46.218 22.238,48.029 24.034,48.427" style="fill:none;fill-rule:nonzero;stroke:rgb(196,196,196);stroke-width:2px;stroke-linejoin:round;stroke-miterlimit:2;"/>
    <circle cx="21.5" cy="23.5" r="3.5" style="fill:none;stroke:rgb(196,196,196);stroke-width:2px;"/>
    <circle cx="31.5" cy="29.5" r="4.5" style="fill:none;stroke:rgb(196,196,196);stroke-width:2px;"/>
</svg>
